<svg width="255" height="27" viewBox="0 0 255 27" fill="none" xmlns="http://www.w3.org/2000/svg">
<path d="M19.568 3.152V20H15.464V9.896L11.696 20H8.384L4.592 9.872V20H0.488V3.152H5.336L10.064 14.816L14.744 3.152H19.568ZM28.6153 20.192C27.3033 20.192 26.1193 19.912 25.0633 19.352C24.0233 18.792 23.1993 17.992 22.5913 16.952C21.9993 15.912 21.7033 14.696 21.7033 13.304C21.7033 11.928 22.0073 10.72 22.6152 9.68C23.2233 8.624 24.0553 7.816 25.1113 7.256C26.1673 6.696 27.3513 6.416 28.6633 6.416C29.9753 6.416 31.1593 6.696 32.2153 7.256C33.2713 7.816 34.1033 8.624 34.7113 9.68C35.3193 10.72 35.6233 11.928 35.6233 13.304C35.6233 14.68 35.3113 15.896 34.6873 16.952C34.0793 17.992 33.2393 18.792 32.1673 19.352C31.1113 19.912 29.9273 20.192 28.6153 20.192ZM28.6153 16.64C29.3993 16.64 30.0633 16.352 30.6073 15.776C31.1673 15.2 31.4473 14.376 31.4473 13.304C31.4473 12.232 31.1753 11.408 30.6313 10.832C30.1033 10.256 29.4473 9.968 28.6633 9.968C27.8633 9.968 27.1993 10.256 26.6713 10.832C26.1433 11.392 25.8793 12.216 25.8793 13.304C25.8793 14.376 26.1353 15.2 26.6473 15.776C27.1753 16.352 27.8313 16.64 28.6153 16.64ZM43.2485 20.192C42.0805 20.192 41.0405 19.992 40.1285 19.592C39.2165 19.192 38.4965 18.648 37.9685 17.96C37.4405 17.256 37.1445 16.472 37.0805 15.608H41.1365C41.1845 16.072 41.4005 16.448 41.7845 16.736C42.1685 17.024 42.6405 17.168 43.2005 17.168C43.7125 17.168 44.1045 17.072 44.3765 16.88C44.6645 16.672 44.8085 16.408 44.8085 16.088C44.8085 15.704 44.6085 15.424 44.2085 15.248C43.8085 15.056 43.1605 14.848 42.2645 14.624C41.3045 14.4 40.5045 14.168 39.8645 13.928C39.2245 13.672 38.6725 13.28 38.2085 12.752C37.7445 12.208 37.5125 11.48 37.5125 10.568C37.5125 9.8 37.7205 9.104 38.1365 8.48C38.5685 7.84 39.1925 7.336 40.0085 6.968C40.8405 6.6 41.8245 6.416 42.9605 6.416C44.6405 6.416 45.9605 6.832 46.9205 7.664C47.8965 8.496 48.4565 9.6 48.6005 10.976H44.8085C44.7445 10.512 44.5365 10.144 44.1845 9.872C43.8485 9.6 43.4005 9.464 42.8405 9.464C42.3605 9.464 41.9925 9.56 41.7365 9.752C41.4805 9.928 41.3525 10.176 41.3525 10.496C41.3525 10.88 41.5525 11.168 41.9525 11.36C42.3685 11.552 43.0085 11.744 43.8725 11.936C44.8645 12.192 45.6725 12.448 46.2965 12.704C46.9205 12.944 47.4645 13.344 47.9285 13.904C48.4085 14.448 48.6565 15.184 48.6725 16.112C48.6725 16.896 48.4485 17.6 48.0005 18.224C47.5685 18.832 46.9365 19.312 46.1045 19.664C45.2885 20.016 44.3365 20.192 43.2485 20.192ZM58.6473 16.52V20H56.5593C55.0713 20 53.9113 19.64 53.0793 18.92C52.2473 18.184 51.8313 16.992 51.8313 15.344V10.016H50.1993V6.608H51.8313V3.344H55.9353V6.608H58.6233V10.016H55.9353V15.392C55.9353 15.792 56.0313 16.08 56.2233 16.256C56.4153 16.432 56.7353 16.52 57.1833 16.52H58.6473ZM74.6113 20L71.1073 13.64H70.1233V20H66.0193V3.152H72.9073C74.2353 3.152 75.3633 3.384 76.2913 3.848C77.2353 4.312 77.9393 4.952 78.4033 5.768C78.8673 6.568 79.0993 7.464 79.0993 8.456C79.0993 9.576 78.7793 10.576 78.1393 11.456C77.5153 12.336 76.5873 12.96 75.3553 13.328L79.2433 20H74.6113ZM70.1233 10.736H72.6673C73.4193 10.736 73.9793 10.552 74.3473 10.184C74.7313 9.816 74.9233 9.296 74.9233 8.624C74.9233 7.984 74.7313 7.48 74.3473 7.112C73.9793 6.744 73.4193 6.56 72.6673 6.56H70.1233V10.736ZM94.2995 13.088C94.2995 13.472 94.2755 13.872 94.2275 14.288H84.9395C85.0035 15.12 85.2675 15.76 85.7315 16.208C86.2115 16.64 86.7955 16.856 87.4835 16.856C88.5075 16.856 89.2195 16.424 89.6195 15.56H93.9875C93.7635 16.44 93.3555 17.232 92.7635 17.936C92.1875 18.64 91.4595 19.192 90.5795 19.592C89.6995 19.992 88.7155 20.192 87.6275 20.192C86.3155 20.192 85.1475 19.912 84.1235 19.352C83.0995 18.792 82.2995 17.992 81.7235 16.952C81.1475 15.912 80.8595 14.696 80.8595 13.304C80.8595 11.912 81.1395 10.696 81.6995 9.656C82.2755 8.616 83.0755 7.816 84.0995 7.256C85.1235 6.696 86.2995 6.416 87.6275 6.416C88.9235 6.416 90.0755 6.688 91.0835 7.232C92.0915 7.776 92.8755 8.552 93.4355 9.56C94.0115 10.568 94.2995 11.744 94.2995 13.088ZM90.0995 12.008C90.0995 11.304 89.8595 10.744 89.3795 10.328C88.8995 9.912 88.2995 9.704 87.5795 9.704C86.8915 9.704 86.3075 9.904 85.8275 10.304C85.3635 10.704 85.0755 11.272 84.9635 12.008H90.0995ZM95.6486 13.304C95.6486 11.912 95.9286 10.696 96.4886 9.656C97.0646 8.616 97.8566 7.816 98.8646 7.256C99.8886 6.696 101.057 6.416 102.369 6.416C104.049 6.416 105.449 6.856 106.569 7.736C107.705 8.616 108.449 9.856 108.801 11.456H104.433C104.065 10.432 103.353 9.92 102.297 9.92C101.545 9.92 100.945 10.216 100.497 10.808C100.049 11.384 99.8246 12.216 99.8246 13.304C99.8246 14.392 100.049 15.232 100.497 15.824C100.945 16.4 101.545 16.688 102.297 16.688C103.353 16.688 104.065 16.176 104.433 15.152H108.801C108.449 16.72 107.705 17.952 106.569 18.848C105.433 19.744 104.033 20.192 102.369 20.192C101.057 20.192 99.8886 19.912 98.8646 19.352C97.8566 18.792 97.0646 17.992 96.4886 16.952C95.9286 15.912 95.6486 14.696 95.6486 13.304ZM123.62 13.088C123.62 13.472 123.596 13.872 123.548 14.288H114.26C114.324 15.12 114.588 15.76 115.052 16.208C115.532 16.64 116.116 16.856 116.804 16.856C117.828 16.856 118.54 16.424 118.94 15.56H123.308C123.084 16.44 122.676 17.232 122.084 17.936C121.508 18.64 120.78 19.192 119.9 19.592C119.02 19.992 118.036 20.192 116.948 20.192C115.636 20.192 114.468 19.912 113.444 19.352C112.42 18.792 111.62 17.992 111.044 16.952C110.468 15.912 110.18 14.696 110.18 13.304C110.18 11.912 110.46 10.696 111.02 9.656C111.596 8.616 112.396 7.816 113.42 7.256C114.444 6.696 115.62 6.416 116.948 6.416C118.244 6.416 119.396 6.688 120.404 7.232C121.412 7.776 122.196 8.552 122.756 9.56C123.332 10.568 123.62 11.744 123.62 13.088ZM119.42 12.008C119.42 11.304 119.18 10.744 118.7 10.328C118.22 9.912 117.62 9.704 116.9 9.704C116.212 9.704 115.628 9.904 115.148 10.304C114.684 10.704 114.396 11.272 114.284 12.008H119.42ZM133.945 6.464C135.513 6.464 136.761 6.976 137.689 8C138.633 9.008 139.105 10.4 139.105 12.176V20H135.025V12.728C135.025 11.832 134.793 11.136 134.329 10.64C133.865 10.144 133.241 9.896 132.457 9.896C131.673 9.896 131.049 10.144 130.585 10.64C130.121 11.136 129.889 11.832 129.889 12.728V20H125.785V6.608H129.889V8.384C130.305 7.792 130.865 7.328 131.569 6.992C132.273 6.64 133.065 6.464 133.945 6.464ZM149.421 16.52V20H147.333C145.845 20 144.685 19.64 143.853 18.92C143.021 18.184 142.605 16.992 142.605 15.344V10.016H140.973V6.608H142.605V3.344H146.709V6.608H149.397V10.016H146.709V15.392C146.709 15.792 146.805 16.08 146.997 16.256C147.189 16.432 147.509 16.52 147.957 16.52H149.421ZM169.633 8.576C169.633 9.552 169.409 10.448 168.961 11.264C168.513 12.064 167.825 12.712 166.897 13.208C165.969 13.704 164.817 13.952 163.441 13.952H160.897V20H156.793V3.152H163.441C164.785 3.152 165.921 3.384 166.849 3.848C167.777 4.312 168.473 4.952 168.937 5.768C169.401 6.584 169.633 7.52 169.633 8.576ZM163.129 10.688C163.913 10.688 164.497 10.504 164.881 10.136C165.265 9.768 165.457 9.248 165.457 8.576C165.457 7.904 165.265 7.384 164.881 7.016C164.497 6.648 163.913 6.464 163.129 6.464H160.897V10.688H163.129ZM175.873 8.84C176.353 8.104 176.953 7.528 177.673 7.112C178.393 6.68 179.193 6.464 180.073 6.464V10.808H178.945C177.921 10.808 177.153 11.032 176.641 11.48C176.129 11.912 175.873 12.68 175.873 13.784V20H171.769V6.608H175.873V8.84ZM188.131 20.192C186.819 20.192 185.635 19.912 184.579 19.352C183.539 18.792 182.715 17.992 182.107 16.952C181.515 15.912 181.219 14.696 181.219 13.304C181.219 11.928 181.523 10.72 182.131 9.68C182.739 8.624 183.571 7.816 184.627 7.256C185.683 6.696 186.867 6.416 188.179 6.416C189.491 6.416 190.675 6.696 191.731 7.256C192.787 7.816 193.619 8.624 194.227 9.68C194.835 10.72 195.139 11.928 195.139 13.304C195.139 14.68 194.827 15.896 194.203 16.952C193.595 17.992 192.755 18.792 191.683 19.352C190.627 19.912 189.443 20.192 188.131 20.192ZM188.131 16.64C188.915 16.64 189.579 16.352 190.123 15.776C190.683 15.2 190.963 14.376 190.963 13.304C190.963 12.232 190.691 11.408 190.147 10.832C189.619 10.256 188.963 9.968 188.179 9.968C187.379 9.968 186.715 10.256 186.187 10.832C185.659 11.392 185.395 12.216 185.395 13.304C185.395 14.376 185.651 15.2 186.163 15.776C186.691 16.352 187.347 16.64 188.131 16.64ZM199.356 5.216C198.636 5.216 198.044 5.008 197.58 4.592C197.132 4.16 196.908 3.632 196.908 3.008C196.908 2.368 197.132 1.84 197.58 1.424C198.044 0.991999 198.636 0.775999 199.356 0.775999C200.06 0.775999 200.636 0.991999 201.084 1.424C201.548 1.84 201.78 2.368 201.78 3.008C201.78 3.632 201.548 4.16 201.084 4.592C200.636 5.008 200.06 5.216 199.356 5.216ZM201.42 21.728C201.42 23.376 201.004 24.56 200.172 25.28C199.34 26.016 198.18 26.384 196.692 26.384H195.084V22.904H196.068C196.516 22.904 196.836 22.816 197.028 22.64C197.22 22.464 197.316 22.176 197.316 21.776V6.608H201.42V21.728ZM216.995 13.088C216.995 13.472 216.971 13.872 216.923 14.288H207.635C207.699 15.12 207.963 15.76 208.427 16.208C208.907 16.64 209.491 16.856 210.179 16.856C211.203 16.856 211.915 16.424 212.315 15.56H216.683C216.459 16.44 216.051 17.232 215.459 17.936C214.883 18.64 214.155 19.192 213.275 19.592C212.395 19.992 211.411 20.192 210.323 20.192C209.011 20.192 207.843 19.912 206.819 19.352C205.795 18.792 204.995 17.992 204.419 16.952C203.843 15.912 203.555 14.696 203.555 13.304C203.555 11.912 203.835 10.696 204.395 9.656C204.971 8.616 205.771 7.816 206.795 7.256C207.819 6.696 208.995 6.416 210.323 6.416C211.619 6.416 212.771 6.688 213.779 7.232C214.787 7.776 215.571 8.552 216.131 9.56C216.707 10.568 216.995 11.744 216.995 13.088ZM212.795 12.008C212.795 11.304 212.555 10.744 212.075 10.328C211.595 9.912 210.995 9.704 210.275 9.704C209.587 9.704 209.003 9.904 208.523 10.304C208.059 10.704 207.771 11.272 207.659 12.008H212.795ZM218.344 13.304C218.344 11.912 218.624 10.696 219.184 9.656C219.76 8.616 220.552 7.816 221.56 7.256C222.584 6.696 223.752 6.416 225.064 6.416C226.744 6.416 228.144 6.856 229.264 7.736C230.4 8.616 231.144 9.856 231.496 11.456H227.128C226.76 10.432 226.048 9.92 224.992 9.92C224.24 9.92 223.64 10.216 223.192 10.808C222.744 11.384 222.52 12.216 222.52 13.304C222.52 14.392 222.744 15.232 223.192 15.824C223.64 16.4 224.24 16.688 224.992 16.688C226.048 16.688 226.76 16.176 227.128 15.152H231.496C231.144 16.72 230.4 17.952 229.264 18.848C228.128 19.744 226.728 20.192 225.064 20.192C223.752 20.192 222.584 19.912 221.56 19.352C220.552 18.792 219.76 17.992 219.184 16.952C218.624 15.912 218.344 14.696 218.344 13.304ZM241.155 16.52V20H239.067C237.579 20 236.419 19.64 235.587 18.92C234.755 18.184 234.339 16.992 234.339 15.344V10.016H232.707V6.608H234.339V3.344H238.443V6.608H241.131V10.016H238.443V15.392C238.443 15.792 238.539 16.08 238.731 16.256C238.923 16.432 239.243 16.52 239.691 16.52H241.155ZM248.889 20.192C247.721 20.192 246.681 19.992 245.769 19.592C244.857 19.192 244.137 18.648 243.609 17.96C243.081 17.256 242.785 16.472 242.721 15.608H246.777C246.825 16.072 247.041 16.448 247.425 16.736C247.809 17.024 248.281 17.168 248.841 17.168C249.353 17.168 249.745 17.072 250.017 16.88C250.305 16.672 250.449 16.408 250.449 16.088C250.449 15.704 250.249 15.424 249.849 15.248C249.449 15.056 248.801 14.848 247.905 14.624C246.945 14.4 246.145 14.168 245.505 13.928C244.865 13.672 244.313 13.28 243.849 12.752C243.385 12.208 243.153 11.48 243.153 10.568C243.153 9.8 243.361 9.104 243.777 8.48C244.209 7.84 244.833 7.336 245.649 6.968C246.481 6.6 247.465 6.416 248.601 6.416C250.281 6.416 251.601 6.832 252.561 7.664C253.537 8.496 254.097 9.6 254.241 10.976H250.449C250.385 10.512 250.177 10.144 249.825 9.872C249.489 9.6 249.041 9.464 248.481 9.464C248.001 9.464 247.633 9.56 247.377 9.752C247.121 9.928 246.993 10.176 246.993 10.496C246.993 10.88 247.193 11.168 247.593 11.36C248.009 11.552 248.649 11.744 249.513 11.936C250.505 12.192 251.313 12.448 251.937 12.704C252.561 12.944 253.105 13.344 253.569 13.904C254.049 14.448 254.297 15.184 254.313 16.112C254.313 16.896 254.089 17.6 253.641 18.224C253.209 18.832 252.577 19.312 251.745 19.664C250.929 20.016 249.977 20.192 248.889 20.192Z" fill="white"/>
</svg>
