<svg width="117" height="19" viewBox="0 0 117 19" fill="none" xmlns="http://www.w3.org/2000/svg">
<path d="M11.976 15.024H5.688L4.68 18H0.384L6.48 1.152H11.232L17.328 18H12.984L11.976 15.024ZM10.92 11.856L8.832 5.688L6.768 11.856H10.92ZM23.2873 6.504C23.6713 5.88 24.2233 5.376 24.9433 4.992C25.6633 4.608 26.4873 4.416 27.4153 4.416C28.5193 4.416 29.5193 4.696 30.4153 5.256C31.3113 5.816 32.0153 6.616 32.5273 7.656C33.0553 8.696 33.3193 9.904 33.3193 11.28C33.3193 12.656 33.0553 13.872 32.5273 14.928C32.0153 15.968 31.3113 16.776 30.4153 17.352C29.5193 17.912 28.5193 18.192 27.4153 18.192C26.4713 18.192 25.6473 18.008 24.9433 17.64C24.2393 17.256 23.6873 16.752 23.2873 16.128V18H19.1833V0.24H23.2873V6.504ZM29.1433 11.28C29.1433 10.256 28.8553 9.456 28.2793 8.88C27.7193 8.288 27.0233 7.992 26.1913 7.992C25.3753 7.992 24.6793 8.288 24.1033 8.88C23.5433 9.472 23.2633 10.28 23.2633 11.304C23.2633 12.328 23.5433 13.136 24.1033 13.728C24.6793 14.32 25.3753 14.616 26.1913 14.616C27.0073 14.616 27.7033 14.32 28.2793 13.728C28.8553 13.12 29.1433 12.304 29.1433 11.28ZM41.5684 18.192C40.2564 18.192 39.0724 17.912 38.0164 17.352C36.9764 16.792 36.1524 15.992 35.5444 14.952C34.9524 13.912 34.6564 12.696 34.6564 11.304C34.6564 9.928 34.9604 8.72 35.5684 7.68C36.1764 6.624 37.0084 5.816 38.0644 5.256C39.1204 4.696 40.3044 4.416 41.6164 4.416C42.9284 4.416 44.1124 4.696 45.1684 5.256C46.2244 5.816 47.0564 6.624 47.6644 7.68C48.2724 8.72 48.5764 9.928 48.5764 11.304C48.5764 12.68 48.2644 13.896 47.6404 14.952C47.0324 15.992 46.1924 16.792 45.1204 17.352C44.0644 17.912 42.8804 18.192 41.5684 18.192ZM41.5684 14.64C42.3524 14.64 43.0164 14.352 43.5604 13.776C44.1204 13.2 44.4004 12.376 44.4004 11.304C44.4004 10.232 44.1284 9.408 43.5844 8.832C43.0564 8.256 42.4004 7.968 41.6164 7.968C40.8164 7.968 40.1524 8.256 39.6244 8.832C39.0964 9.392 38.8324 10.216 38.8324 11.304C38.8324 12.376 39.0884 13.2 39.6004 13.776C40.1284 14.352 40.7844 14.64 41.5684 14.64ZM63.9776 4.608V18H59.8736V16.176C59.4576 16.768 58.8896 17.248 58.1696 17.616C57.4656 17.968 56.6816 18.144 55.8176 18.144C54.7936 18.144 53.8896 17.92 53.1056 17.472C52.3216 17.008 51.7136 16.344 51.2816 15.48C50.8496 14.616 50.6336 13.6 50.6336 12.432V4.608H54.7136V11.88C54.7136 12.776 54.9456 13.472 55.4096 13.968C55.8736 14.464 56.4976 14.712 57.2816 14.712C58.0816 14.712 58.7136 14.464 59.1776 13.968C59.6416 13.472 59.8736 12.776 59.8736 11.88V4.608H63.9776ZM74.3895 14.52V18H72.3015C70.8135 18 69.6535 17.64 68.8215 16.92C67.9895 16.184 67.5735 14.992 67.5735 13.344V8.016H65.9415V4.608H67.5735V1.344H71.6775V4.608H74.3655V8.016H71.6775V13.392C71.6775 13.792 71.7735 14.08 71.9655 14.256C72.1575 14.432 72.4775 14.52 72.9255 14.52H74.3895ZM100.841 1.152V18H96.7374V7.896L92.9694 18H89.6574L85.8654 7.872V18H81.7614V1.152H86.6094L91.3374 12.816L96.0174 1.152H100.841ZM116.417 11.088C116.417 11.472 116.393 11.872 116.345 12.288H107.057C107.121 13.12 107.385 13.76 107.849 14.208C108.329 14.64 108.913 14.856 109.601 14.856C110.625 14.856 111.337 14.424 111.737 13.56H116.105C115.881 14.44 115.473 15.232 114.881 15.936C114.305 16.64 113.577 17.192 112.697 17.592C111.817 17.992 110.833 18.192 109.745 18.192C108.433 18.192 107.265 17.912 106.241 17.352C105.217 16.792 104.417 15.992 103.841 14.952C103.265 13.912 102.977 12.696 102.977 11.304C102.977 9.912 103.257 8.696 103.817 7.656C104.393 6.616 105.193 5.816 106.217 5.256C107.241 4.696 108.417 4.416 109.745 4.416C111.041 4.416 112.193 4.688 113.201 5.232C114.209 5.776 114.993 6.552 115.553 7.56C116.129 8.568 116.417 9.744 116.417 11.088ZM112.217 10.008C112.217 9.304 111.977 8.744 111.497 8.328C111.017 7.912 110.417 7.704 109.697 7.704C109.009 7.704 108.425 7.904 107.945 8.304C107.481 8.704 107.193 9.272 107.081 10.008H112.217Z" fill="white"/>
</svg>
