<svg width="539" height="58" viewBox="0 0 539 58" fill="none" xmlns="http://www.w3.org/2000/svg">
<path d="M10.08 51H18.84V57H2.24V28.8H10.08V51ZM43.3284 45.52C43.3284 46.1333 43.2884 46.7467 43.2084 47.36H28.3684C28.4484 48.5867 28.7818 49.5067 29.3684 50.12C29.9818 50.7067 30.7551 51 31.6884 51C32.9951 51 33.9284 50.4133 34.4884 49.24H42.8484C42.5018 50.7867 41.8218 52.1733 40.8084 53.4C39.8218 54.6 38.5684 55.5467 37.0484 56.24C35.5284 56.9333 33.8484 57.28 32.0084 57.28C29.7951 57.28 27.8218 56.8133 26.0884 55.88C24.3818 54.9467 23.0351 53.6133 22.0484 51.88C21.0884 50.1467 20.6084 48.1067 20.6084 45.76C20.6084 43.4133 21.0884 41.3867 22.0484 39.68C23.0084 37.9467 24.3418 36.6133 26.0484 35.68C27.7818 34.7467 29.7684 34.28 32.0084 34.28C34.2218 34.28 36.1818 34.7333 37.8884 35.64C39.5951 36.5467 40.9284 37.8533 41.8884 39.56C42.8484 41.24 43.3284 43.2267 43.3284 45.52ZM35.3284 43.56C35.3284 42.6 35.0084 41.8533 34.3684 41.32C33.7284 40.76 32.9284 40.48 31.9684 40.48C31.0084 40.48 30.2218 40.7467 29.6084 41.28C28.9951 41.7867 28.5951 42.5467 28.4084 43.56H35.3284ZM59.7769 50.32V57H56.3769C50.6435 57 47.7769 54.16 47.7769 48.48V41.08H45.0169V34.56H47.7769V29.12H55.6569V34.56H59.7369V41.08H55.6569V48.6C55.6569 49.2133 55.7902 49.6533 56.0569 49.92C56.3502 50.1867 56.8302 50.32 57.4969 50.32H59.7769ZM65.2928 28.8H73.2128L68.6128 40.08H63.3728L65.2928 28.8ZM86.7609 57.28C84.7343 57.28 82.9209 56.9467 81.3209 56.28C79.7476 55.5867 78.4943 54.6533 77.5609 53.48C76.6543 52.28 76.1476 50.9333 76.0409 49.44H83.6409C83.7476 50.16 84.0809 50.72 84.6409 51.12C85.2009 51.52 85.8943 51.72 86.7209 51.72C87.3609 51.72 87.8676 51.5867 88.2409 51.32C88.6143 51.0533 88.8009 50.7067 88.8009 50.28C88.8009 49.72 88.4943 49.3067 87.8809 49.04C87.2676 48.7733 86.2543 48.48 84.8409 48.16C83.2409 47.84 81.9076 47.48 80.8409 47.08C79.7743 46.68 78.8409 46.0267 78.0409 45.12C77.2676 44.2133 76.8809 42.9867 76.8809 41.44C76.8809 40.1067 77.2409 38.9067 77.9609 37.84C78.6809 36.7467 79.7343 35.88 81.1209 35.24C82.5343 34.6 84.2276 34.28 86.2009 34.28C89.1343 34.28 91.4409 35 93.1209 36.44C94.8009 37.88 95.7743 39.7733 96.0409 42.12H88.9609C88.8276 41.4 88.5076 40.8533 88.0009 40.48C87.5209 40.08 86.8676 39.88 86.0409 39.88C85.4009 39.88 84.9076 40 84.5609 40.24C84.2409 40.48 84.0809 40.8133 84.0809 41.24C84.0809 41.7733 84.3876 42.1867 85.0009 42.48C85.6143 42.7467 86.6009 43.0267 87.9609 43.32C89.5876 43.6667 90.9343 44.0533 92.0009 44.48C93.0943 44.9067 94.0409 45.6 94.8409 46.56C95.6676 47.4933 96.0809 48.7733 96.0809 50.4C96.0809 51.7067 95.6943 52.88 94.9209 53.92C94.1743 54.96 93.0943 55.7867 91.6809 56.4C90.2943 56.9867 88.6543 57.28 86.7609 57.28ZM132.832 28.8V57H124.992V45.68H115.432V57H107.592V28.8H115.432V39.4H124.992V28.8H132.832ZM136.038 45.76C136.038 43.44 136.451 41.4133 137.278 39.68C138.131 37.9467 139.278 36.6133 140.718 35.68C142.185 34.7467 143.811 34.28 145.598 34.28C147.145 34.28 148.478 34.5867 149.598 35.2C150.718 35.8133 151.585 36.64 152.198 37.68V34.56H160.038V57H152.198V53.88C151.585 54.92 150.705 55.7467 149.558 56.36C148.438 56.9733 147.118 57.28 145.598 57.28C143.811 57.28 142.185 56.8133 140.718 55.88C139.278 54.9467 138.131 53.6133 137.278 51.88C136.451 50.12 136.038 48.08 136.038 45.76ZM152.198 45.76C152.198 44.32 151.798 43.1867 150.998 42.36C150.225 41.5333 149.265 41.12 148.118 41.12C146.945 41.12 145.971 41.5333 145.198 42.36C144.425 43.16 144.038 44.2933 144.038 45.76C144.038 47.2 144.425 48.3467 145.198 49.2C145.971 50.0267 146.945 50.44 148.118 50.44C149.265 50.44 150.225 50.0267 150.998 49.2C151.798 48.3733 152.198 47.2267 152.198 45.76ZM175.266 49.6L179.466 34.56H187.826L180.106 57H170.346L162.626 34.56H170.986L175.266 49.6ZM211.922 45.52C211.922 46.1333 211.882 46.7467 211.802 47.36H196.962C197.042 48.5867 197.376 49.5067 197.962 50.12C198.576 50.7067 199.349 51 200.282 51C201.589 51 202.522 50.4133 203.082 49.24H211.442C211.096 50.7867 210.416 52.1733 209.402 53.4C208.416 54.6 207.162 55.5467 205.642 56.24C204.122 56.9333 202.442 57.28 200.602 57.28C198.389 57.28 196.416 56.8133 194.682 55.88C192.976 54.9467 191.629 53.6133 190.642 51.88C189.682 50.1467 189.202 48.1067 189.202 45.76C189.202 43.4133 189.682 41.3867 190.642 39.68C191.602 37.9467 192.936 36.6133 194.642 35.68C196.376 34.7467 198.362 34.28 200.602 34.28C202.816 34.28 204.776 34.7333 206.482 35.64C208.189 36.5467 209.522 37.8533 210.482 39.56C211.442 41.24 211.922 43.2267 211.922 45.52ZM203.922 43.56C203.922 42.6 203.602 41.8533 202.962 41.32C202.322 40.76 201.522 40.48 200.562 40.48C199.602 40.48 198.816 40.7467 198.202 41.28C197.589 41.7867 197.189 42.5467 197.002 43.56H203.922ZM221.507 45.76C221.507 43.44 221.92 41.4133 222.747 39.68C223.6 37.9467 224.747 36.6133 226.187 35.68C227.654 34.7467 229.28 34.28 231.067 34.28C232.614 34.28 233.947 34.5867 235.067 35.2C236.187 35.8133 237.054 36.64 237.667 37.68V34.56H245.507V57H237.667V53.88C237.054 54.92 236.174 55.7467 235.027 56.36C233.907 56.9733 232.587 57.28 231.067 57.28C229.28 57.28 227.654 56.8133 226.187 55.88C224.747 54.9467 223.6 53.6133 222.747 51.88C221.92 50.12 221.507 48.08 221.507 45.76ZM237.667 45.76C237.667 44.32 237.267 43.1867 236.467 42.36C235.694 41.5333 234.734 41.12 233.587 41.12C232.414 41.12 231.44 41.5333 230.667 42.36C229.894 43.16 229.507 44.2933 229.507 45.76C229.507 47.2 229.894 48.3467 230.667 49.2C231.44 50.0267 232.414 50.44 233.587 50.44C234.734 50.44 235.694 50.0267 236.467 49.2C237.267 48.3733 237.667 47.2267 237.667 45.76ZM256.671 42.84C256.671 40.0667 257.244 37.6 258.391 35.44C259.564 33.2533 261.217 31.56 263.351 30.36C265.484 29.1333 267.937 28.52 270.711 28.52C274.231 28.52 277.191 29.4667 279.591 31.36C281.991 33.2267 283.537 35.7733 284.231 39H275.791C275.284 37.9333 274.577 37.12 273.671 36.56C272.791 36 271.764 35.72 270.591 35.72C268.777 35.72 267.324 36.3733 266.231 37.68C265.164 38.96 264.631 40.68 264.631 42.84C264.631 45.0267 265.164 46.7733 266.231 48.08C267.324 49.36 268.777 50 270.591 50C271.764 50 272.791 49.72 273.671 49.16C274.577 48.6 275.284 47.7867 275.791 46.72H284.231C283.537 49.9467 281.991 52.5067 279.591 54.4C277.191 56.2667 274.231 57.2 270.711 57.2C267.937 57.2 265.484 56.6 263.351 55.4C261.217 54.1733 259.564 52.48 258.391 50.32C257.244 48.1333 256.671 45.64 256.671 42.84ZM298.383 57.28C296.143 57.28 294.13 56.8133 292.343 55.88C290.583 54.9467 289.196 53.6133 288.183 51.88C287.17 50.1467 286.663 48.1067 286.663 45.76C286.663 43.44 287.17 41.4133 288.183 39.68C289.223 37.9467 290.623 36.6133 292.383 35.68C294.17 34.7467 296.183 34.28 298.423 34.28C300.663 34.28 302.663 34.7467 304.423 35.68C306.21 36.6133 307.61 37.9467 308.623 39.68C309.663 41.4133 310.183 43.44 310.183 45.76C310.183 48.08 309.663 50.12 308.623 51.88C307.61 53.6133 306.21 54.9467 304.423 55.88C302.636 56.8133 300.623 57.28 298.383 57.28ZM298.383 50.48C299.476 50.48 300.383 50.08 301.103 49.28C301.85 48.4533 302.223 47.28 302.223 45.76C302.223 44.24 301.85 43.08 301.103 42.28C300.383 41.48 299.49 41.08 298.423 41.08C297.356 41.08 296.463 41.48 295.743 42.28C295.023 43.08 294.663 44.24 294.663 45.76C294.663 47.3067 295.01 48.48 295.703 49.28C296.396 50.08 297.29 50.48 298.383 50.48ZM328.053 34.36C330.639 34.36 332.693 35.2267 334.213 36.96C335.733 38.6667 336.493 40.9867 336.493 43.92V57H328.653V44.96C328.653 43.68 328.319 42.68 327.653 41.96C326.986 41.2133 326.093 40.84 324.973 40.84C323.799 40.84 322.879 41.2133 322.213 41.96C321.546 42.68 321.213 43.68 321.213 44.96V57H313.373V34.56H321.213V37.76C321.906 36.7467 322.839 35.9333 324.013 35.32C325.186 34.68 326.533 34.36 328.053 34.36ZM351.555 49.6L355.755 34.56H364.115L356.395 57H346.635L338.915 34.56H347.275L351.555 49.6ZM388.211 45.52C388.211 46.1333 388.171 46.7467 388.091 47.36H373.251C373.331 48.5867 373.665 49.5067 374.251 50.12C374.865 50.7067 375.638 51 376.571 51C377.878 51 378.811 50.4133 379.371 49.24H387.731C387.385 50.7867 386.705 52.1733 385.691 53.4C384.705 54.6 383.451 55.5467 381.931 56.24C380.411 56.9333 378.731 57.28 376.891 57.28C374.678 57.28 372.705 56.8133 370.971 55.88C369.265 54.9467 367.918 53.6133 366.931 51.88C365.971 50.1467 365.491 48.1067 365.491 45.76C365.491 43.4133 365.971 41.3867 366.931 39.68C367.891 37.9467 369.225 36.6133 370.931 35.68C372.665 34.7467 374.651 34.28 376.891 34.28C379.105 34.28 381.065 34.7333 382.771 35.64C384.478 36.5467 385.811 37.8533 386.771 39.56C387.731 41.24 388.211 43.2267 388.211 45.52ZM380.211 43.56C380.211 42.6 379.891 41.8533 379.251 41.32C378.611 40.76 377.811 40.48 376.851 40.48C375.891 40.48 375.105 40.7467 374.491 41.28C373.878 41.7867 373.478 42.5467 373.291 43.56H380.211ZM399.26 38.52C400.14 37.24 401.206 36.2267 402.46 35.48C403.713 34.7333 405.06 34.36 406.5 34.36V42.72H404.3C402.593 42.72 401.326 43.0533 400.5 43.72C399.673 44.3867 399.26 45.5467 399.26 47.2V57H391.42V34.56H399.26V38.52ZM418.87 57.28C416.844 57.28 415.03 56.9467 413.43 56.28C411.857 55.5867 410.604 54.6533 409.67 53.48C408.764 52.28 408.257 50.9333 408.15 49.44H415.75C415.857 50.16 416.19 50.72 416.75 51.12C417.31 51.52 418.004 51.72 418.83 51.72C419.47 51.72 419.977 51.5867 420.35 51.32C420.724 51.0533 420.91 50.7067 420.91 50.28C420.91 49.72 420.604 49.3067 419.99 49.04C419.377 48.7733 418.364 48.48 416.95 48.16C415.35 47.84 414.017 47.48 412.95 47.08C411.884 46.68 410.95 46.0267 410.15 45.12C409.377 44.2133 408.99 42.9867 408.99 41.44C408.99 40.1067 409.35 38.9067 410.07 37.84C410.79 36.7467 411.844 35.88 413.23 35.24C414.644 34.6 416.337 34.28 418.31 34.28C421.244 34.28 423.55 35 425.23 36.44C426.91 37.88 427.884 39.7733 428.15 42.12H421.07C420.937 41.4 420.617 40.8533 420.11 40.48C419.63 40.08 418.977 39.88 418.15 39.88C417.51 39.88 417.017 40 416.67 40.24C416.35 40.48 416.19 40.8133 416.19 41.24C416.19 41.7733 416.497 42.1867 417.11 42.48C417.724 42.7467 418.71 43.0267 420.07 43.32C421.697 43.6667 423.044 44.0533 424.11 44.48C425.204 44.9067 426.15 45.6 426.95 46.56C427.777 47.4933 428.19 48.7733 428.19 50.4C428.19 51.7067 427.804 52.88 427.03 53.92C426.284 54.96 425.204 55.7867 423.79 56.4C422.404 56.9867 420.764 57.28 418.87 57.28ZM430.765 45.76C430.765 43.44 431.178 41.4133 432.005 39.68C432.858 37.9467 434.005 36.6133 435.445 35.68C436.911 34.7467 438.538 34.28 440.325 34.28C441.871 34.28 443.205 34.5867 444.325 35.2C445.445 35.8133 446.311 36.64 446.925 37.68V34.56H454.765V57H446.925V53.88C446.311 54.92 445.431 55.7467 444.285 56.36C443.165 56.9733 441.845 57.28 440.325 57.28C438.538 57.28 436.911 56.8133 435.445 55.88C434.005 54.9467 432.858 53.6133 432.005 51.88C431.178 50.12 430.765 48.08 430.765 45.76ZM446.925 45.76C446.925 44.32 446.525 43.1867 445.725 42.36C444.951 41.5333 443.991 41.12 442.845 41.12C441.671 41.12 440.698 41.5333 439.925 42.36C439.151 43.16 438.765 44.2933 438.765 45.76C438.765 47.2 439.151 48.3467 439.925 49.2C440.698 50.0267 441.671 50.44 442.845 50.44C443.991 50.44 444.951 50.0267 445.725 49.2C446.525 48.3733 446.925 47.2267 446.925 45.76ZM472.472 50.32V57H469.072C463.339 57 460.472 54.16 460.472 48.48V41.08H457.712V34.56H460.472V29.12H468.352V34.56H472.432V41.08H468.352V48.6C468.352 49.2133 468.486 49.6533 468.752 49.92C469.046 50.1867 469.526 50.32 470.192 50.32H472.472ZM480.028 32.48C478.641 32.48 477.521 32.1067 476.668 31.36C475.841 30.5867 475.428 29.6267 475.428 28.48C475.428 27.3067 475.841 26.3333 476.668 25.56C477.521 24.7867 478.641 24.4 480.028 24.4C481.388 24.4 482.481 24.7867 483.308 25.56C484.161 26.3333 484.588 27.3067 484.588 28.48C484.588 29.6267 484.161 30.5867 483.308 31.36C482.481 32.1067 481.388 32.48 480.028 32.48ZM483.908 34.56V57H476.068V34.56H483.908ZM498.813 57.28C496.573 57.28 494.559 56.8133 492.773 55.88C491.013 54.9467 489.626 53.6133 488.613 51.88C487.599 50.1467 487.093 48.1067 487.093 45.76C487.093 43.44 487.599 41.4133 488.613 39.68C489.653 37.9467 491.053 36.6133 492.813 35.68C494.599 34.7467 496.613 34.28 498.853 34.28C501.093 34.28 503.093 34.7467 504.853 35.68C506.639 36.6133 508.039 37.9467 509.053 39.68C510.093 41.4133 510.613 43.44 510.613 45.76C510.613 48.08 510.093 50.12 509.053 51.88C508.039 53.6133 506.639 54.9467 504.853 55.88C503.066 56.8133 501.053 57.28 498.813 57.28ZM498.813 50.48C499.906 50.48 500.813 50.08 501.533 49.28C502.279 48.4533 502.653 47.28 502.653 45.76C502.653 44.24 502.279 43.08 501.533 42.28C500.813 41.48 499.919 41.08 498.853 41.08C497.786 41.08 496.893 41.48 496.173 42.28C495.453 43.08 495.093 44.24 495.093 45.76C495.093 47.3067 495.439 48.48 496.133 49.28C496.826 50.08 497.719 50.48 498.813 50.48ZM528.483 34.36C531.069 34.36 533.123 35.2267 534.643 36.96C536.163 38.6667 536.923 40.9867 536.923 43.92V57H529.083V44.96C529.083 43.68 528.749 42.68 528.083 41.96C527.416 41.2133 526.523 40.84 525.403 40.84C524.229 40.84 523.309 41.2133 522.643 41.96C521.976 42.68 521.643 43.68 521.643 44.96V57H513.803V34.56H521.643V37.76C522.336 36.7467 523.269 35.9333 524.443 35.32C525.616 34.68 526.963 34.36 528.483 34.36Z" fill="white"/>
<path d="M154.984 17.016H150.792L150.12 19H147.256L151.32 7.768H154.488L158.552 19H155.656L154.984 17.016ZM154.28 14.904L152.888 10.792L151.512 14.904H154.28ZM163.805 16.44L165.741 10.072H168.653L165.485 19H162.109L158.941 10.072H161.869L163.805 16.44ZM169.261 14.52C169.261 13.6027 169.431 12.7973 169.773 12.104C170.125 11.4107 170.599 10.8773 171.197 10.504C171.794 10.1307 172.461 9.944 173.197 9.944C173.826 9.944 174.375 10.072 174.845 10.328C175.325 10.584 175.693 10.92 175.949 11.336V10.072H178.685V19H175.949V17.736C175.682 18.152 175.309 18.488 174.829 18.744C174.359 19 173.81 19.128 173.181 19.128C172.455 19.128 171.794 18.9413 171.197 18.568C170.599 18.184 170.125 17.6453 169.773 16.952C169.431 16.248 169.261 15.4373 169.261 14.52ZM175.949 14.536C175.949 13.8533 175.757 13.3147 175.373 12.92C174.999 12.5253 174.541 12.328 173.997 12.328C173.453 12.328 172.989 12.5253 172.605 12.92C172.231 13.304 172.045 13.8373 172.045 14.52C172.045 15.2027 172.231 15.7467 172.605 16.152C172.989 16.5467 173.453 16.744 173.997 16.744C174.541 16.744 174.999 16.5467 175.373 16.152C175.757 15.7573 175.949 15.2187 175.949 14.536ZM182.04 9.144C181.56 9.144 181.165 9.00533 180.856 8.728C180.557 8.44 180.408 8.088 180.408 7.672C180.408 7.24533 180.557 6.89333 180.856 6.616C181.165 6.328 181.56 6.184 182.04 6.184C182.509 6.184 182.893 6.328 183.192 6.616C183.501 6.89333 183.656 7.24533 183.656 7.672C183.656 8.088 183.501 8.44 183.192 8.728C182.893 9.00533 182.509 9.144 182.04 9.144ZM183.4 10.072V19H180.664V10.072H183.4ZM188.119 7.16V19H185.383V7.16H188.119ZM189.557 14.52C189.557 13.6027 189.728 12.7973 190.069 12.104C190.421 11.4107 190.896 10.8773 191.493 10.504C192.091 10.1307 192.757 9.944 193.493 9.944C194.123 9.944 194.672 10.072 195.141 10.328C195.621 10.584 195.989 10.92 196.245 11.336V10.072H198.981V19H196.245V17.736C195.979 18.152 195.605 18.488 195.125 18.744C194.656 19 194.107 19.128 193.477 19.128C192.752 19.128 192.091 18.9413 191.493 18.568C190.896 18.184 190.421 17.6453 190.069 16.952C189.728 16.248 189.557 15.4373 189.557 14.52ZM196.245 14.536C196.245 13.8533 196.053 13.3147 195.669 12.92C195.296 12.5253 194.837 12.328 194.293 12.328C193.749 12.328 193.285 12.5253 192.901 12.92C192.528 13.304 192.341 13.8373 192.341 14.52C192.341 15.2027 192.528 15.7467 192.901 16.152C193.285 16.5467 193.749 16.744 194.293 16.744C194.837 16.744 195.296 16.5467 195.669 16.152C196.053 15.7573 196.245 15.2187 196.245 14.536ZM203.697 11.336C203.953 10.92 204.321 10.584 204.801 10.328C205.281 10.072 205.83 9.944 206.449 9.944C207.185 9.944 207.851 10.1307 208.449 10.504C209.046 10.8773 209.515 11.4107 209.857 12.104C210.209 12.7973 210.385 13.6027 210.385 14.52C210.385 15.4373 210.209 16.248 209.857 16.952C209.515 17.6453 209.046 18.184 208.449 18.568C207.851 18.9413 207.185 19.128 206.449 19.128C205.819 19.128 205.27 19.0053 204.801 18.76C204.331 18.504 203.963 18.168 203.697 17.752V19H200.961V7.16H203.697V11.336ZM207.601 14.52C207.601 13.8373 207.409 13.304 207.025 12.92C206.651 12.5253 206.187 12.328 205.633 12.328C205.089 12.328 204.625 12.5253 204.241 12.92C203.867 13.3147 203.681 13.8533 203.681 14.536C203.681 15.2187 203.867 15.7573 204.241 16.152C204.625 16.5467 205.089 16.744 205.633 16.744C206.177 16.744 206.641 16.5467 207.025 16.152C207.409 15.7467 207.601 15.2027 207.601 14.52ZM214.556 7.16V19H211.82V7.16H214.556ZM224.955 14.392C224.955 14.648 224.939 14.9147 224.907 15.192H218.715C218.758 15.7467 218.934 16.1733 219.243 16.472C219.563 16.76 219.952 16.904 220.411 16.904C221.094 16.904 221.568 16.616 221.835 16.04H224.747C224.598 16.6267 224.326 17.1547 223.931 17.624C223.547 18.0933 223.062 18.4613 222.475 18.728C221.888 18.9947 221.232 19.128 220.507 19.128C219.632 19.128 218.854 18.9413 218.171 18.568C217.488 18.1947 216.955 17.6613 216.571 16.968C216.187 16.2747 215.995 15.464 215.995 14.536C215.995 13.608 216.182 12.7973 216.555 12.104C216.939 11.4107 217.472 10.8773 218.155 10.504C218.838 10.1307 219.622 9.944 220.507 9.944C221.371 9.944 222.139 10.1253 222.811 10.488C223.483 10.8507 224.006 11.368 224.379 12.04C224.763 12.712 224.955 13.496 224.955 14.392ZM222.155 13.672C222.155 13.2027 221.995 12.8293 221.675 12.552C221.355 12.2747 220.955 12.136 220.475 12.136C220.016 12.136 219.627 12.2693 219.307 12.536C218.998 12.8027 218.806 13.1813 218.731 13.672H222.155ZM234.269 12.344H232.797V19H230.061V12.344H229.069V10.072H230.061V9.816C230.061 8.71733 230.376 7.88533 231.005 7.32C231.634 6.744 232.557 6.456 233.773 6.456C233.976 6.456 234.125 6.46133 234.221 6.472V8.792C233.698 8.76 233.33 8.83467 233.117 9.016C232.904 9.19733 232.797 9.52267 232.797 9.992V10.072H234.269V12.344ZM239.619 19.128C238.744 19.128 237.955 18.9413 237.251 18.568C236.557 18.1947 236.008 17.6613 235.603 16.968C235.208 16.2747 235.011 15.464 235.011 14.536C235.011 13.6187 235.213 12.8133 235.618 12.12C236.024 11.416 236.579 10.8773 237.283 10.504C237.987 10.1307 238.776 9.944 239.651 9.944C240.525 9.944 241.315 10.1307 242.019 10.504C242.723 10.8773 243.277 11.416 243.683 12.12C244.088 12.8133 244.291 13.6187 244.291 14.536C244.291 15.4533 244.083 16.264 243.667 16.968C243.261 17.6613 242.701 18.1947 241.987 18.568C241.283 18.9413 240.493 19.128 239.619 19.128ZM239.619 16.76C240.141 16.76 240.584 16.568 240.947 16.184C241.32 15.8 241.507 15.2507 241.507 14.536C241.507 13.8213 241.325 13.272 240.963 12.888C240.611 12.504 240.173 12.312 239.651 12.312C239.117 12.312 238.675 12.504 238.323 12.888C237.971 13.2613 237.795 13.8107 237.795 14.536C237.795 15.2507 237.965 15.8 238.307 16.184C238.659 16.568 239.096 16.76 239.619 16.76ZM248.478 11.56C248.798 11.0693 249.198 10.6853 249.678 10.408C250.158 10.12 250.691 9.976 251.278 9.976V12.872H250.526C249.843 12.872 249.331 13.0213 248.99 13.32C248.649 13.608 248.478 14.12 248.478 14.856V19H245.742V10.072H248.478V11.56ZM261.416 9.976C262.462 9.976 263.294 10.3173 263.912 11C264.542 11.672 264.856 12.6 264.856 13.784V19H262.136V14.152C262.136 13.5547 261.982 13.0907 261.672 12.76C261.363 12.4293 260.947 12.264 260.424 12.264C259.902 12.264 259.486 12.4293 259.176 12.76C258.867 13.0907 258.712 13.5547 258.712 14.152V19H255.976V10.072H258.712V11.256C258.99 10.8613 259.363 10.552 259.832 10.328C260.302 10.0933 260.83 9.976 261.416 9.976ZM275.174 14.392C275.174 14.648 275.158 14.9147 275.126 15.192H268.934C268.976 15.7467 269.152 16.1733 269.462 16.472C269.782 16.76 270.171 16.904 270.63 16.904C271.312 16.904 271.787 16.616 272.054 16.04H274.966C274.816 16.6267 274.544 17.1547 274.15 17.624C273.766 18.0933 273.28 18.4613 272.694 18.728C272.107 18.9947 271.451 19.128 270.726 19.128C269.851 19.128 269.072 18.9413 268.39 18.568C267.707 18.1947 267.174 17.6613 266.79 16.968C266.406 16.2747 266.214 15.464 266.214 14.536C266.214 13.608 266.4 12.7973 266.774 12.104C267.158 11.4107 267.691 10.8773 268.374 10.504C269.056 10.1307 269.84 9.944 270.726 9.944C271.59 9.944 272.358 10.1253 273.03 10.488C273.702 10.8507 274.224 11.368 274.598 12.04C274.982 12.712 275.174 13.496 275.174 14.392ZM272.374 13.672C272.374 13.2027 272.214 12.8293 271.894 12.552C271.574 12.2747 271.174 12.136 270.694 12.136C270.235 12.136 269.846 12.2693 269.526 12.536C269.216 12.8027 269.024 13.1813 268.95 13.672H272.374ZM289.433 10.072L287.017 19H283.993L282.585 13.208L281.129 19H278.121L275.689 10.072H278.425L279.689 16.456L281.193 10.072H284.089L285.609 16.424L286.857 10.072H289.433ZM293.323 14.536C293.323 13.608 293.51 12.7973 293.883 12.104C294.267 11.4107 294.795 10.8773 295.467 10.504C296.15 10.1307 296.928 9.944 297.803 9.944C298.923 9.944 299.856 10.2373 300.603 10.824C301.36 11.4107 301.856 12.2373 302.091 13.304H299.179C298.934 12.6213 298.459 12.28 297.755 12.28C297.254 12.28 296.854 12.4773 296.555 12.872C296.256 13.256 296.107 13.8107 296.107 14.536C296.107 15.2613 296.256 15.8213 296.555 16.216C296.854 16.6 297.254 16.792 297.755 16.792C298.459 16.792 298.934 16.4507 299.179 15.768H302.091C301.856 16.8133 301.36 17.6347 300.603 18.232C299.846 18.8293 298.912 19.128 297.803 19.128C296.928 19.128 296.15 18.9413 295.467 18.568C294.795 18.1947 294.267 17.6613 293.883 16.968C293.51 16.2747 293.323 15.464 293.323 14.536ZM309.043 9.976C310.067 9.976 310.888 10.3173 311.507 11C312.125 11.672 312.435 12.6 312.435 13.784V19H309.715V14.152C309.715 13.5547 309.56 13.0907 309.251 12.76C308.941 12.4293 308.525 12.264 308.003 12.264C307.48 12.264 307.064 12.4293 306.755 12.76C306.445 13.0907 306.291 13.5547 306.291 14.152V19H303.555V7.16H306.291V11.272C306.568 10.8773 306.947 10.5627 307.427 10.328C307.907 10.0933 308.445 9.976 309.043 9.976ZM313.792 14.52C313.792 13.6027 313.962 12.7973 314.304 12.104C314.656 11.4107 315.13 10.8773 315.728 10.504C316.325 10.1307 316.992 9.944 317.728 9.944C318.357 9.944 318.906 10.072 319.376 10.328C319.856 10.584 320.224 10.92 320.48 11.336V10.072H323.216V19H320.48V17.736C320.213 18.152 319.84 18.488 319.36 18.744C318.89 19 318.341 19.128 317.712 19.128C316.986 19.128 316.325 18.9413 315.728 18.568C315.13 18.184 314.656 17.6453 314.304 16.952C313.962 16.248 313.792 15.4373 313.792 14.52ZM320.48 14.536C320.48 13.8533 320.288 13.3147 319.904 12.92C319.53 12.5253 319.072 12.328 318.528 12.328C317.984 12.328 317.52 12.5253 317.136 12.92C316.762 13.304 316.576 13.8373 316.576 14.52C316.576 15.2027 316.762 15.7467 317.136 16.152C317.52 16.5467 317.984 16.744 318.528 16.744C319.072 16.744 319.53 16.5467 319.904 16.152C320.288 15.7573 320.48 15.2187 320.48 14.536ZM327.931 7.16V19H325.195V7.16H327.931ZM332.65 7.16V19H329.914V7.16H332.65ZM343.049 14.392C343.049 14.648 343.033 14.9147 343.001 15.192H336.809C336.851 15.7467 337.027 16.1733 337.337 16.472C337.657 16.76 338.046 16.904 338.505 16.904C339.187 16.904 339.662 16.616 339.929 16.04H342.841C342.691 16.6267 342.419 17.1547 342.025 17.624C341.641 18.0933 341.155 18.4613 340.569 18.728C339.982 18.9947 339.326 19.128 338.601 19.128C337.726 19.128 336.947 18.9413 336.265 18.568C335.582 18.1947 335.049 17.6613 334.665 16.968C334.281 16.2747 334.089 15.464 334.089 14.536C334.089 13.608 334.275 12.7973 334.649 12.104C335.033 11.4107 335.566 10.8773 336.249 10.504C336.931 10.1307 337.715 9.944 338.601 9.944C339.465 9.944 340.233 10.1253 340.905 10.488C341.577 10.8507 342.099 11.368 342.473 12.04C342.857 12.712 343.049 13.496 343.049 14.392ZM340.249 13.672C340.249 13.2027 340.089 12.8293 339.769 12.552C339.449 12.2747 339.049 12.136 338.569 12.136C338.11 12.136 337.721 12.2693 337.401 12.536C337.091 12.8027 336.899 13.1813 336.825 13.672H340.249ZM349.932 9.976C350.977 9.976 351.809 10.3173 352.428 11C353.057 11.672 353.372 12.6 353.372 13.784V19H350.652V14.152C350.652 13.5547 350.497 13.0907 350.188 12.76C349.879 12.4293 349.463 12.264 348.94 12.264C348.417 12.264 348.001 12.4293 347.692 12.76C347.383 13.0907 347.228 13.5547 347.228 14.152V19H344.492V10.072H347.228V11.256C347.505 10.8613 347.879 10.552 348.348 10.328C348.817 10.0933 349.345 9.976 349.932 9.976ZM358.665 9.944C359.295 9.944 359.844 10.072 360.313 10.328C360.793 10.584 361.161 10.92 361.417 11.336V10.072H364.153V18.984C364.153 19.8053 363.988 20.5467 363.657 21.208C363.337 21.88 362.841 22.4133 362.169 22.808C361.508 23.2027 360.681 23.4 359.689 23.4C358.367 23.4 357.295 23.0853 356.473 22.456C355.652 21.8373 355.183 20.9947 355.065 19.928H357.769C357.855 20.2693 358.057 20.536 358.377 20.728C358.697 20.9307 359.092 21.032 359.561 21.032C360.127 21.032 360.575 20.8667 360.905 20.536C361.247 20.216 361.417 19.6987 361.417 18.984V17.72C361.151 18.136 360.783 18.4773 360.313 18.744C359.844 19 359.295 19.128 358.665 19.128C357.929 19.128 357.263 18.9413 356.665 18.568C356.068 18.184 355.593 17.6453 355.241 16.952C354.9 16.248 354.729 15.4373 354.729 14.52C354.729 13.6027 354.9 12.7973 355.241 12.104C355.593 11.4107 356.068 10.8773 356.665 10.504C357.263 10.1307 357.929 9.944 358.665 9.944ZM361.417 14.536C361.417 13.8533 361.225 13.3147 360.841 12.92C360.468 12.5253 360.009 12.328 359.465 12.328C358.921 12.328 358.457 12.5253 358.073 12.92C357.7 13.304 357.513 13.8373 357.513 14.52C357.513 15.2027 357.7 15.7467 358.073 16.152C358.457 16.5467 358.921 16.744 359.465 16.744C360.009 16.744 360.468 16.5467 360.841 16.152C361.225 15.7573 361.417 15.2187 361.417 14.536ZM374.549 14.392C374.549 14.648 374.533 14.9147 374.501 15.192H368.309C368.351 15.7467 368.527 16.1733 368.837 16.472C369.157 16.76 369.546 16.904 370.005 16.904C370.687 16.904 371.162 16.616 371.429 16.04H374.341C374.191 16.6267 373.919 17.1547 373.525 17.624C373.141 18.0933 372.655 18.4613 372.069 18.728C371.482 18.9947 370.826 19.128 370.101 19.128C369.226 19.128 368.447 18.9413 367.765 18.568C367.082 18.1947 366.549 17.6613 366.165 16.968C365.781 16.2747 365.589 15.464 365.589 14.536C365.589 13.608 365.775 12.7973 366.149 12.104C366.533 11.4107 367.066 10.8773 367.749 10.504C368.431 10.1307 369.215 9.944 370.101 9.944C370.965 9.944 371.733 10.1253 372.405 10.488C373.077 10.8507 373.599 11.368 373.973 12.04C374.357 12.712 374.549 13.496 374.549 14.392ZM371.749 13.672C371.749 13.2027 371.589 12.8293 371.269 12.552C370.949 12.2747 370.549 12.136 370.069 12.136C369.61 12.136 369.221 12.2693 368.901 12.536C368.591 12.8027 368.399 13.1813 368.325 13.672H371.749ZM379.624 19.128C378.845 19.128 378.152 18.9947 377.544 18.728C376.936 18.4613 376.456 18.0987 376.104 17.64C375.752 17.1707 375.555 16.648 375.512 16.072H378.216C378.248 16.3813 378.392 16.632 378.648 16.824C378.904 17.016 379.219 17.112 379.592 17.112C379.933 17.112 380.195 17.048 380.376 16.92C380.568 16.7813 380.664 16.6053 380.664 16.392C380.664 16.136 380.531 15.9493 380.264 15.832C379.997 15.704 379.565 15.5653 378.968 15.416C378.328 15.2667 377.795 15.112 377.368 14.952C376.941 14.7813 376.573 14.52 376.264 14.168C375.955 13.8053 375.8 13.32 375.8 12.712C375.8 12.2 375.939 11.736 376.216 11.32C376.504 10.8933 376.92 10.5573 377.464 10.312C378.019 10.0667 378.675 9.944 379.432 9.944C380.552 9.944 381.432 10.2213 382.072 10.776C382.723 11.3307 383.096 12.0667 383.192 12.984H380.664C380.621 12.6747 380.483 12.4293 380.248 12.248C380.024 12.0667 379.725 11.976 379.352 11.976C379.032 11.976 378.787 12.04 378.616 12.168C378.445 12.2853 378.36 12.4507 378.36 12.664C378.36 12.92 378.493 13.112 378.76 13.24C379.037 13.368 379.464 13.496 380.04 13.624C380.701 13.7947 381.24 13.9653 381.656 14.136C382.072 14.296 382.435 14.5627 382.744 14.936C383.064 15.2987 383.229 15.7893 383.24 16.408C383.24 16.9307 383.091 17.4 382.792 17.816C382.504 18.2213 382.083 18.5413 381.528 18.776C380.984 19.0107 380.349 19.128 379.624 19.128ZM388.514 7.368L388.194 15.032H385.874L385.554 7.368H388.514ZM387.074 19.128C386.594 19.128 386.199 18.9893 385.89 18.712C385.591 18.424 385.442 18.072 385.442 17.656C385.442 17.2293 385.591 16.872 385.89 16.584C386.199 16.296 386.594 16.152 387.074 16.152C387.543 16.152 387.927 16.296 388.226 16.584C388.535 16.872 388.69 17.2293 388.69 17.656C388.69 18.072 388.535 18.424 388.226 18.712C387.927 18.9893 387.543 19.128 387.074 19.128Z" fill="white"/>
</svg>
