<svg width="782" height="154" viewBox="0 0 782 154" fill="none" xmlns="http://www.w3.org/2000/svg">
<rect width="782" height="154" fill="url(#paint0_linear_25_1081)"/>
<path d="M340 154L263 77L340 0L358.288 18.2875L299.254 77.3208L357.967 136.033L340 154ZM442.667 154L424.379 135.713L483.413 76.6792L424.7 17.9667L442.667 0L519.667 77L442.667 154Z" fill="#283593"/>
<path d="M285.08 83H293.84V89H277.24V60.8H285.08V83ZM319.848 66.56V89H311.968V85.8C311.302 86.8133 310.382 87.64 309.208 88.28C308.035 88.8933 306.688 89.2 305.168 89.2C302.555 89.2 300.488 88.3467 298.968 86.64C297.475 84.9067 296.728 82.56 296.728 79.6V66.56H304.528V78.6C304.528 79.88 304.862 80.8933 305.528 81.64C306.222 82.36 307.128 82.72 308.248 82.72C309.395 82.72 310.302 82.36 310.968 81.64C311.635 80.8933 311.968 79.88 311.968 78.6V66.56H319.848ZM323.03 77.76C323.03 75.44 323.51 73.4133 324.47 71.68C325.43 69.9467 326.764 68.6133 328.47 67.68C330.204 66.7467 332.177 66.28 334.39 66.28C337.244 66.28 339.644 67.0667 341.59 68.64C343.537 70.1867 344.79 72.36 345.35 75.16H337.03C336.55 73.6933 335.617 72.96 334.23 72.96C333.244 72.96 332.457 73.3733 331.87 74.2C331.31 75 331.03 76.1867 331.03 77.76C331.03 79.3333 331.31 80.5333 331.87 81.36C332.457 82.1867 333.244 82.6 334.23 82.6C335.644 82.6 336.577 81.8667 337.03 80.4H345.35C344.79 83.1733 343.537 85.3467 341.59 86.92C339.644 88.4933 337.244 89.28 334.39 89.28C332.177 89.28 330.204 88.8133 328.47 87.88C326.764 86.9467 325.43 85.6133 324.47 83.88C323.51 82.1467 323.03 80.1067 323.03 77.76ZM347.327 77.76C347.327 75.44 347.741 73.4133 348.567 71.68C349.421 69.9467 350.567 68.6133 352.007 67.68C353.474 66.7467 355.101 66.28 356.887 66.28C358.434 66.28 359.767 66.5867 360.887 67.2C362.007 67.8133 362.874 68.64 363.487 69.68V66.56H371.327V89H363.487V85.88C362.874 86.92 361.994 87.7467 360.847 88.36C359.727 88.9733 358.407 89.28 356.887 89.28C355.101 89.28 353.474 88.8133 352.007 87.88C350.567 86.9467 349.421 85.6133 348.567 83.88C347.741 82.12 347.327 80.08 347.327 77.76ZM363.487 77.76C363.487 76.32 363.087 75.1867 362.287 74.36C361.514 73.5333 360.554 73.12 359.407 73.12C358.234 73.12 357.261 73.5333 356.487 74.36C355.714 75.16 355.327 76.2933 355.327 77.76C355.327 79.2 355.714 80.3467 356.487 81.2C357.261 82.0267 358.234 82.44 359.407 82.44C360.554 82.44 361.514 82.0267 362.287 81.2C363.087 80.3733 363.487 79.2267 363.487 77.76ZM385.355 89.28C383.328 89.28 381.515 88.9467 379.915 88.28C378.341 87.5867 377.088 86.6533 376.155 85.48C375.248 84.28 374.741 82.9333 374.635 81.44H382.235C382.341 82.16 382.675 82.72 383.235 83.12C383.795 83.52 384.488 83.72 385.315 83.72C385.955 83.72 386.461 83.5867 386.835 83.32C387.208 83.0533 387.395 82.7067 387.395 82.28C387.395 81.72 387.088 81.3067 386.475 81.04C385.861 80.7733 384.848 80.48 383.435 80.16C381.835 79.84 380.501 79.48 379.435 79.08C378.368 78.68 377.435 78.0267 376.635 77.12C375.861 76.2133 375.475 74.9867 375.475 73.44C375.475 72.1067 375.835 70.9067 376.555 69.84C377.275 68.7467 378.328 67.88 379.715 67.24C381.128 66.6 382.821 66.28 384.795 66.28C387.728 66.28 390.035 67 391.715 68.44C393.395 69.88 394.368 71.7733 394.635 74.12H387.555C387.421 73.4 387.101 72.8533 386.595 72.48C386.115 72.08 385.461 71.88 384.635 71.88C383.995 71.88 383.501 72 383.155 72.24C382.835 72.48 382.675 72.8133 382.675 73.24C382.675 73.7733 382.981 74.1867 383.595 74.48C384.208 74.7467 385.195 75.0267 386.555 75.32C388.181 75.6667 389.528 76.0533 390.595 76.48C391.688 76.9067 392.635 77.6 393.435 78.56C394.261 79.4933 394.675 80.7733 394.675 82.4C394.675 83.7067 394.288 84.88 393.515 85.92C392.768 86.96 391.688 87.7867 390.275 88.4C388.888 88.9867 387.248 89.28 385.355 89.28ZM416.825 89.28C413.545 89.28 410.852 88.5067 408.745 86.96C406.639 85.3867 405.505 83.1467 405.345 80.24H413.705C413.785 81.2267 414.079 81.9467 414.585 82.4C415.092 82.8533 415.745 83.08 416.545 83.08C417.265 83.08 417.852 82.9067 418.305 82.56C418.785 82.1867 419.025 81.68 419.025 81.04C419.025 80.2133 418.639 79.5733 417.865 79.12C417.092 78.6667 415.839 78.16 414.105 77.6C412.265 76.9867 410.772 76.4 409.625 75.84C408.505 75.2533 407.519 74.4133 406.665 73.32C405.839 72.2 405.425 70.7467 405.425 68.96C405.425 67.1467 405.879 65.6 406.785 64.32C407.692 63.0133 408.945 62.0267 410.545 61.36C412.145 60.6933 413.959 60.36 415.985 60.36C419.265 60.36 421.879 61.1333 423.825 62.68C425.799 64.2 426.852 66.3467 426.985 69.12H418.465C418.439 68.2667 418.172 67.6267 417.665 67.2C417.185 66.7733 416.559 66.56 415.785 66.56C415.199 66.56 414.719 66.7333 414.345 67.08C413.972 67.4267 413.785 67.92 413.785 68.56C413.785 69.0933 413.985 69.56 414.385 69.96C414.812 70.3333 415.332 70.6667 415.945 70.96C416.559 71.2267 417.465 71.5733 418.665 72C420.452 72.6133 421.919 73.2267 423.065 73.84C424.239 74.4267 425.239 75.2667 426.065 76.36C426.919 77.4267 427.345 78.7867 427.345 80.44C427.345 82.12 426.919 83.6267 426.065 84.96C425.239 86.2933 424.025 87.3467 422.425 88.12C420.852 88.8933 418.985 89.28 416.825 89.28ZM434.95 64.48C433.563 64.48 432.443 64.1067 431.59 63.36C430.763 62.5867 430.35 61.6267 430.35 60.48C430.35 59.3067 430.763 58.3333 431.59 57.56C432.443 56.7867 433.563 56.4 434.95 56.4C436.31 56.4 437.403 56.7867 438.23 57.56C439.083 58.3333 439.51 59.3067 439.51 60.48C439.51 61.6267 439.083 62.5867 438.23 63.36C437.403 64.1067 436.31 64.48 434.95 64.48ZM438.83 66.56V89H430.99V66.56H438.83ZM451.135 59.4V89H443.295V59.4H451.135ZM466.359 81.6L470.559 66.56H478.919L471.199 89H461.439L453.719 66.56H462.079L466.359 81.6ZM480.296 77.76C480.296 75.44 480.709 73.4133 481.536 71.68C482.389 69.9467 483.536 68.6133 484.976 67.68C486.443 66.7467 488.069 66.28 489.856 66.28C491.403 66.28 492.736 66.5867 493.856 67.2C494.976 67.8133 495.843 68.64 496.456 69.68V66.56H504.296V89H496.456V85.88C495.843 86.92 494.963 87.7467 493.816 88.36C492.696 88.9733 491.376 89.28 489.856 89.28C488.069 89.28 486.443 88.8133 484.976 87.88C483.536 86.9467 482.389 85.6133 481.536 83.88C480.709 82.12 480.296 80.08 480.296 77.76ZM496.456 77.76C496.456 76.32 496.056 75.1867 495.256 74.36C494.483 73.5333 493.523 73.12 492.376 73.12C491.203 73.12 490.229 73.5333 489.456 74.36C488.683 75.16 488.296 76.2933 488.296 77.76C488.296 79.2 488.683 80.3467 489.456 81.2C490.229 82.0267 491.203 82.44 492.376 82.44C493.523 82.44 494.483 82.0267 495.256 81.2C496.056 80.3733 496.456 79.2267 496.456 77.76Z" fill="white"/>
<path d="M314.304 39.768V41.96H309.728V44.328H313.152V46.456H309.728V51H306.992V39.768H314.304ZM318.478 43.56C318.798 43.0693 319.198 42.6853 319.678 42.408C320.158 42.12 320.691 41.976 321.278 41.976V44.872H320.526C319.843 44.872 319.331 45.0213 318.99 45.32C318.649 45.608 318.478 46.12 318.478 46.856V51H315.742V42.072H318.478V43.56ZM326.65 51.128C325.775 51.128 324.986 50.9413 324.282 50.568C323.588 50.1947 323.039 49.6613 322.634 48.968C322.239 48.2747 322.042 47.464 322.042 46.536C322.042 45.6187 322.244 44.8133 322.65 44.12C323.055 43.416 323.61 42.8773 324.314 42.504C325.018 42.1307 325.807 41.944 326.682 41.944C327.556 41.944 328.346 42.1307 329.05 42.504C329.754 42.8773 330.308 43.416 330.714 44.12C331.119 44.8133 331.322 45.6187 331.322 46.536C331.322 47.4533 331.114 48.264 330.698 48.968C330.292 49.6613 329.732 50.1947 329.018 50.568C328.314 50.9413 327.524 51.128 326.65 51.128ZM326.65 48.76C327.172 48.76 327.615 48.568 327.978 48.184C328.351 47.8 328.538 47.2507 328.538 46.536C328.538 45.8213 328.356 45.272 327.994 44.888C327.642 44.504 327.204 44.312 326.682 44.312C326.148 44.312 325.706 44.504 325.354 44.888C325.002 45.2613 324.826 45.8107 324.826 46.536C324.826 47.2507 324.996 47.8 325.338 48.184C325.69 48.568 326.127 48.76 326.65 48.76ZM338.213 41.976C339.259 41.976 340.091 42.3173 340.709 43C341.339 43.672 341.653 44.6 341.653 45.784V51H338.933V46.152C338.933 45.5547 338.779 45.0907 338.469 44.76C338.16 44.4293 337.744 44.264 337.221 44.264C336.699 44.264 336.283 44.4293 335.973 44.76C335.664 45.0907 335.509 45.5547 335.509 46.152V51H332.773V42.072H335.509V43.256C335.787 42.8613 336.16 42.552 336.629 42.328C337.099 42.0933 337.627 41.976 338.213 41.976ZM348.531 48.68V51H347.139C346.147 51 345.373 50.76 344.819 50.28C344.264 49.7893 343.987 48.9947 343.987 47.896V44.344H342.899V42.072H343.987V39.896H346.723V42.072H348.515V44.344H346.723V47.928C346.723 48.1947 346.787 48.3867 346.915 48.504C347.043 48.6213 347.256 48.68 347.555 48.68H348.531ZM356.935 44.248V46.52H349.895V44.248H356.935ZM362.072 41.96V44.232H365.736V46.344H362.072V48.808H366.216V51H359.336V39.768H366.216V41.96H362.072ZM373.432 41.976C374.477 41.976 375.309 42.3173 375.928 43C376.557 43.672 376.872 44.6 376.872 45.784V51H374.152V46.152C374.152 45.5547 373.997 45.0907 373.688 44.76C373.379 44.4293 372.963 44.264 372.44 44.264C371.917 44.264 371.501 44.4293 371.192 44.76C370.883 45.0907 370.728 45.5547 370.728 46.152V51H367.992V42.072H370.728V43.256C371.005 42.8613 371.379 42.552 371.848 42.328C372.317 42.0933 372.845 41.976 373.432 41.976ZM378.229 46.52C378.229 45.6027 378.4 44.7973 378.741 44.104C379.093 43.4107 379.568 42.8773 380.165 42.504C380.763 42.1307 381.429 41.944 382.165 41.944C382.752 41.944 383.285 42.0667 383.765 42.312C384.256 42.5573 384.64 42.888 384.917 43.304V39.16H387.653V51H384.917V49.72C384.661 50.1467 384.293 50.488 383.813 50.744C383.344 51 382.795 51.128 382.165 51.128C381.429 51.128 380.763 50.9413 380.165 50.568C379.568 50.184 379.093 49.6453 378.741 48.952C378.4 48.248 378.229 47.4373 378.229 46.52ZM384.917 46.536C384.917 45.8533 384.725 45.3147 384.341 44.92C383.968 44.5253 383.509 44.328 382.965 44.328C382.421 44.328 381.957 44.5253 381.573 44.92C381.2 45.304 381.013 45.8373 381.013 46.52C381.013 47.2027 381.2 47.7467 381.573 48.152C381.957 48.5467 382.421 48.744 382.965 48.744C383.509 48.744 383.968 48.5467 384.341 48.152C384.725 47.7573 384.917 47.2187 384.917 46.536ZM397.231 39.768C398.415 39.768 399.45 40.0027 400.335 40.472C401.221 40.9413 401.903 41.6027 402.383 42.456C402.874 43.2987 403.119 44.2747 403.119 45.384C403.119 46.4827 402.874 47.4587 402.383 48.312C401.903 49.1653 401.215 49.8267 400.319 50.296C399.434 50.7653 398.405 51 397.231 51H393.023V39.768H397.231ZM397.055 48.632C398.09 48.632 398.895 48.3493 399.471 47.784C400.047 47.2187 400.335 46.4187 400.335 45.384C400.335 44.3493 400.047 43.544 399.471 42.968C398.895 42.392 398.09 42.104 397.055 42.104H395.759V48.632H397.055ZM413.064 46.392C413.064 46.648 413.048 46.9147 413.016 47.192H406.824C406.867 47.7467 407.043 48.1733 407.352 48.472C407.672 48.76 408.062 48.904 408.52 48.904C409.203 48.904 409.678 48.616 409.944 48.04H412.856C412.707 48.6267 412.435 49.1547 412.04 49.624C411.656 50.0933 411.171 50.4613 410.584 50.728C409.998 50.9947 409.342 51.128 408.616 51.128C407.742 51.128 406.963 50.9413 406.28 50.568C405.598 50.1947 405.064 49.6613 404.68 48.968C404.296 48.2747 404.104 47.464 404.104 46.536C404.104 45.608 404.291 44.7973 404.664 44.104C405.048 43.4107 405.582 42.8773 406.264 42.504C406.947 42.1307 407.731 41.944 408.616 41.944C409.48 41.944 410.248 42.1253 410.92 42.488C411.592 42.8507 412.115 43.368 412.488 44.04C412.872 44.712 413.064 45.496 413.064 46.392ZM410.264 45.672C410.264 45.2027 410.104 44.8293 409.784 44.552C409.464 44.2747 409.064 44.136 408.584 44.136C408.126 44.136 407.736 44.2693 407.416 44.536C407.107 44.8027 406.915 45.1813 406.84 45.672H410.264ZM418.524 48.44L420.46 42.072H423.372L420.204 51H416.828L413.66 42.072H416.588L418.524 48.44ZM432.939 46.392C432.939 46.648 432.923 46.9147 432.891 47.192H426.699C426.742 47.7467 426.918 48.1733 427.227 48.472C427.547 48.76 427.937 48.904 428.395 48.904C429.078 48.904 429.553 48.616 429.819 48.04H432.731C432.582 48.6267 432.31 49.1547 431.915 49.624C431.531 50.0933 431.046 50.4613 430.459 50.728C429.873 50.9947 429.217 51.128 428.491 51.128C427.617 51.128 426.838 50.9413 426.155 50.568C425.473 50.1947 424.939 49.6613 424.555 48.968C424.171 48.2747 423.979 47.464 423.979 46.536C423.979 45.608 424.166 44.7973 424.539 44.104C424.923 43.4107 425.457 42.8773 426.139 42.504C426.822 42.1307 427.606 41.944 428.491 41.944C429.355 41.944 430.123 42.1253 430.795 42.488C431.467 42.8507 431.99 43.368 432.363 44.04C432.747 44.712 432.939 45.496 432.939 46.392ZM430.139 45.672C430.139 45.2027 429.979 44.8293 429.659 44.552C429.339 44.2747 428.939 44.136 428.459 44.136C428.001 44.136 427.611 44.2693 427.291 44.536C426.982 44.8027 426.79 45.1813 426.715 45.672H430.139ZM437.119 39.16V51H434.383V39.16H437.119ZM443.165 51.128C442.291 51.128 441.501 50.9413 440.797 50.568C440.104 50.1947 439.555 49.6613 439.149 48.968C438.755 48.2747 438.557 47.464 438.557 46.536C438.557 45.6187 438.76 44.8133 439.165 44.12C439.571 43.416 440.125 42.8773 440.829 42.504C441.533 42.1307 442.323 41.944 443.197 41.944C444.072 41.944 444.861 42.1307 445.565 42.504C446.269 42.8773 446.824 43.416 447.229 44.12C447.635 44.8133 447.837 45.6187 447.837 46.536C447.837 47.4533 447.629 48.264 447.213 48.968C446.808 49.6613 446.248 50.1947 445.533 50.568C444.829 50.9413 444.04 51.128 443.165 51.128ZM443.165 48.76C443.688 48.76 444.131 48.568 444.493 48.184C444.867 47.8 445.053 47.2507 445.053 46.536C445.053 45.8213 444.872 45.272 444.509 44.888C444.157 44.504 443.72 44.312 443.197 44.312C442.664 44.312 442.221 44.504 441.869 44.888C441.517 45.2613 441.341 45.8107 441.341 46.536C441.341 47.2507 441.512 47.8 441.853 48.184C442.205 48.568 442.643 48.76 443.165 48.76ZM452.025 43.336C452.292 42.92 452.66 42.584 453.129 42.328C453.598 42.072 454.148 41.944 454.777 41.944C455.513 41.944 456.18 42.1307 456.777 42.504C457.374 42.8773 457.844 43.4107 458.185 44.104C458.537 44.7973 458.713 45.6027 458.713 46.52C458.713 47.4373 458.537 48.248 458.185 48.952C457.844 49.6453 457.374 50.184 456.777 50.568C456.18 50.9413 455.513 51.128 454.777 51.128C454.158 51.128 453.609 51 453.129 50.744C452.66 50.488 452.292 50.1573 452.025 49.752V55.256H449.289V42.072H452.025V43.336ZM455.929 46.52C455.929 45.8373 455.737 45.304 455.353 44.92C454.98 44.5253 454.516 44.328 453.961 44.328C453.417 44.328 452.953 44.5253 452.569 44.92C452.196 45.3147 452.009 45.8533 452.009 46.536C452.009 47.2187 452.196 47.7573 452.569 48.152C452.953 48.5467 453.417 48.744 453.961 48.744C454.505 48.744 454.969 48.5467 455.353 48.152C455.737 47.7467 455.929 47.2027 455.929 46.52ZM468.564 46.392C468.564 46.648 468.548 46.9147 468.516 47.192H462.324C462.367 47.7467 462.543 48.1733 462.852 48.472C463.172 48.76 463.562 48.904 464.02 48.904C464.703 48.904 465.178 48.616 465.444 48.04H468.356C468.207 48.6267 467.935 49.1547 467.54 49.624C467.156 50.0933 466.671 50.4613 466.084 50.728C465.498 50.9947 464.842 51.128 464.116 51.128C463.242 51.128 462.463 50.9413 461.78 50.568C461.098 50.1947 460.564 49.6613 460.18 48.968C459.796 48.2747 459.604 47.464 459.604 46.536C459.604 45.608 459.791 44.7973 460.164 44.104C460.548 43.4107 461.082 42.8773 461.764 42.504C462.447 42.1307 463.231 41.944 464.116 41.944C464.98 41.944 465.748 42.1253 466.42 42.488C467.092 42.8507 467.615 43.368 467.988 44.04C468.372 44.712 468.564 45.496 468.564 46.392ZM465.764 45.672C465.764 45.2027 465.604 44.8293 465.284 44.552C464.964 44.2747 464.564 44.136 464.084 44.136C463.626 44.136 463.236 44.2693 462.916 44.536C462.607 44.8027 462.415 45.1813 462.34 45.672H465.764ZM472.744 43.56C473.064 43.0693 473.464 42.6853 473.944 42.408C474.424 42.12 474.957 41.976 475.544 41.976V44.872H474.792C474.109 44.872 473.597 45.0213 473.256 45.32C472.914 45.608 472.744 46.12 472.744 46.856V51H470.008V42.072H472.744V43.56Z" fill="white"/>
<path d="M227.096 103.848V105.032H224.056V115H222.6V105.032H219.544V103.848H227.096ZM236.664 106.232V115H235.208V113.704C234.931 114.152 234.542 114.504 234.04 114.76C233.55 115.005 233.006 115.128 232.408 115.128C231.726 115.128 231.112 114.989 230.568 114.712C230.024 114.424 229.592 113.997 229.272 113.432C228.963 112.867 228.808 112.179 228.808 111.368V106.232H230.248V111.176C230.248 112.04 230.467 112.707 230.904 113.176C231.342 113.635 231.939 113.864 232.696 113.864C233.475 113.864 234.088 113.624 234.536 113.144C234.984 112.664 235.208 111.965 235.208 111.048V106.232H236.664ZM240.579 107.656C240.835 107.155 241.197 106.765 241.667 106.488C242.147 106.211 242.728 106.072 243.411 106.072V107.576H243.027C241.395 107.576 240.579 108.461 240.579 110.232V115H239.123V106.232H240.579V107.656ZM249.363 106.072C250.43 106.072 251.294 106.397 251.955 107.048C252.617 107.688 252.947 108.616 252.947 109.832V115H251.507V110.04C251.507 109.165 251.289 108.499 250.851 108.04C250.414 107.571 249.817 107.336 249.059 107.336C248.291 107.336 247.678 107.576 247.219 108.056C246.771 108.536 246.547 109.235 246.547 110.152V115H245.091V106.232H246.547V107.48C246.835 107.032 247.225 106.685 247.715 106.44C248.217 106.195 248.766 106.072 249.363 106.072ZM256.078 104.808C255.8 104.808 255.566 104.712 255.374 104.52C255.182 104.328 255.086 104.093 255.086 103.816C255.086 103.539 255.182 103.304 255.374 103.112C255.566 102.92 255.8 102.824 256.078 102.824C256.344 102.824 256.568 102.92 256.75 103.112C256.942 103.304 257.038 103.539 257.038 103.816C257.038 104.093 256.942 104.328 256.75 104.52C256.568 104.712 256.344 104.808 256.078 104.808ZM256.782 106.232V115H255.326V106.232H256.782ZM263.535 106.072C264.602 106.072 265.466 106.397 266.127 107.048C266.789 107.688 267.119 108.616 267.119 109.832V115H265.679V110.04C265.679 109.165 265.461 108.499 265.023 108.04C264.586 107.571 263.989 107.336 263.231 107.336C262.463 107.336 261.85 107.576 261.391 108.056C260.943 108.536 260.719 109.235 260.719 110.152V115H259.263V106.232H260.719V107.48C261.007 107.032 261.397 106.685 261.887 106.44C262.389 106.195 262.938 106.072 263.535 106.072ZM273.114 106.088C273.871 106.088 274.532 106.253 275.098 106.584C275.674 106.915 276.1 107.331 276.378 107.832V106.232H277.85V115.192C277.85 115.992 277.679 116.701 277.338 117.32C276.996 117.949 276.506 118.44 275.866 118.792C275.236 119.144 274.5 119.32 273.658 119.32C272.506 119.32 271.546 119.048 270.778 118.504C270.01 117.96 269.556 117.219 269.418 116.28H270.858C271.018 116.813 271.348 117.24 271.85 117.56C272.351 117.891 272.954 118.056 273.658 118.056C274.458 118.056 275.108 117.805 275.61 117.304C276.122 116.803 276.378 116.099 276.378 115.192V113.352C276.09 113.864 275.663 114.291 275.098 114.632C274.532 114.973 273.871 115.144 273.114 115.144C272.335 115.144 271.626 114.952 270.986 114.568C270.356 114.184 269.86 113.645 269.498 112.952C269.135 112.259 268.954 111.469 268.954 110.584C268.954 109.688 269.135 108.904 269.498 108.232C269.86 107.549 270.356 107.021 270.986 106.648C271.626 106.275 272.335 106.088 273.114 106.088ZM276.378 110.6C276.378 109.939 276.244 109.363 275.978 108.872C275.711 108.381 275.348 108.008 274.89 107.752C274.442 107.485 273.946 107.352 273.402 107.352C272.858 107.352 272.362 107.48 271.914 107.736C271.466 107.992 271.108 108.365 270.842 108.856C270.575 109.347 270.442 109.923 270.442 110.584C270.442 111.256 270.575 111.843 270.842 112.344C271.108 112.835 271.466 113.213 271.914 113.48C272.362 113.736 272.858 113.864 273.402 113.864C273.946 113.864 274.442 113.736 274.89 113.48C275.348 113.213 275.711 112.835 275.978 112.344C276.244 111.843 276.378 111.261 276.378 110.6ZM285.328 104.808C285.05 104.808 284.816 104.712 284.624 104.52C284.432 104.328 284.336 104.093 284.336 103.816C284.336 103.539 284.432 103.304 284.624 103.112C284.816 102.92 285.05 102.824 285.328 102.824C285.594 102.824 285.818 102.92 286 103.112C286.192 103.304 286.288 103.539 286.288 103.816C286.288 104.093 286.192 104.328 286 104.52C285.818 104.712 285.594 104.808 285.328 104.808ZM286.032 106.232V115H284.576V106.232H286.032ZM287.969 110.584C287.969 109.688 288.151 108.904 288.513 108.232C288.876 107.549 289.372 107.021 290.001 106.648C290.641 106.275 291.356 106.088 292.145 106.088C292.828 106.088 293.463 106.248 294.049 106.568C294.636 106.877 295.084 107.288 295.393 107.8V103.16H296.865V115H295.393V113.352C295.105 113.875 294.679 114.307 294.113 114.648C293.548 114.979 292.887 115.144 292.129 115.144C291.351 115.144 290.641 114.952 290.001 114.568C289.372 114.184 288.876 113.645 288.513 112.952C288.151 112.259 287.969 111.469 287.969 110.584ZM295.393 110.6C295.393 109.939 295.26 109.363 294.993 108.872C294.727 108.381 294.364 108.008 293.905 107.752C293.457 107.485 292.961 107.352 292.417 107.352C291.873 107.352 291.377 107.48 290.929 107.736C290.481 107.992 290.124 108.365 289.857 108.856C289.591 109.347 289.457 109.923 289.457 110.584C289.457 111.256 289.591 111.843 289.857 112.344C290.124 112.835 290.481 113.213 290.929 113.48C291.377 113.736 291.873 113.864 292.417 113.864C292.961 113.864 293.457 113.736 293.905 113.48C294.364 113.213 294.727 112.835 294.993 112.344C295.26 111.843 295.393 111.261 295.393 110.6ZM307.326 110.28C307.326 110.557 307.31 110.851 307.278 111.16H300.27C300.323 112.024 300.616 112.701 301.15 113.192C301.694 113.672 302.35 113.912 303.118 113.912C303.747 113.912 304.27 113.768 304.686 113.48C305.112 113.181 305.411 112.787 305.582 112.296H307.15C306.915 113.139 306.446 113.827 305.742 114.36C305.038 114.883 304.163 115.144 303.118 115.144C302.286 115.144 301.539 114.957 300.878 114.584C300.227 114.211 299.715 113.683 299.342 113C298.968 112.307 298.782 111.507 298.782 110.6C298.782 109.693 298.963 108.899 299.326 108.216C299.688 107.533 300.195 107.011 300.846 106.648C301.507 106.275 302.264 106.088 303.118 106.088C303.95 106.088 304.686 106.269 305.326 106.632C305.966 106.995 306.456 107.496 306.798 108.136C307.15 108.765 307.326 109.48 307.326 110.28ZM305.822 109.976C305.822 109.421 305.699 108.947 305.454 108.552C305.208 108.147 304.872 107.843 304.446 107.64C304.03 107.427 303.566 107.32 303.054 107.32C302.318 107.32 301.688 107.555 301.166 108.024C300.654 108.493 300.36 109.144 300.286 109.976H305.822ZM308.704 110.584C308.704 109.688 308.885 108.904 309.248 108.232C309.61 107.549 310.106 107.021 310.736 106.648C311.376 106.275 312.085 106.088 312.864 106.088C313.632 106.088 314.298 106.253 314.864 106.584C315.429 106.915 315.85 107.331 316.128 107.832V106.232H317.6V115H316.128V113.368C315.84 113.88 315.408 114.307 314.832 114.648C314.266 114.979 313.605 115.144 312.848 115.144C312.069 115.144 311.365 114.952 310.736 114.568C310.106 114.184 309.61 113.645 309.248 112.952C308.885 112.259 308.704 111.469 308.704 110.584ZM316.128 110.6C316.128 109.939 315.994 109.363 315.728 108.872C315.461 108.381 315.098 108.008 314.64 107.752C314.192 107.485 313.696 107.352 313.152 107.352C312.608 107.352 312.112 107.48 311.664 107.736C311.216 107.992 310.858 108.365 310.592 108.856C310.325 109.347 310.192 109.923 310.192 110.584C310.192 111.256 310.325 111.843 310.592 112.344C310.858 112.835 311.216 113.213 311.664 113.48C312.112 113.736 312.608 113.864 313.152 113.864C313.696 113.864 314.192 113.736 314.64 113.48C315.098 113.213 315.461 112.835 315.728 112.344C315.994 111.843 316.128 111.261 316.128 110.6ZM323.164 115.144C322.492 115.144 321.889 115.032 321.356 114.808C320.823 114.573 320.401 114.253 320.092 113.848C319.783 113.432 319.612 112.957 319.58 112.424H321.084C321.127 112.861 321.329 113.219 321.692 113.496C322.065 113.773 322.551 113.912 323.148 113.912C323.703 113.912 324.14 113.789 324.46 113.544C324.78 113.299 324.94 112.989 324.94 112.616C324.94 112.232 324.769 111.949 324.428 111.768C324.087 111.576 323.559 111.389 322.844 111.208C322.193 111.037 321.66 110.867 321.244 110.696C320.839 110.515 320.487 110.253 320.188 109.912C319.9 109.56 319.756 109.101 319.756 108.536C319.756 108.088 319.889 107.677 320.156 107.304C320.423 106.931 320.801 106.637 321.292 106.424C321.783 106.2 322.343 106.088 322.972 106.088C323.943 106.088 324.727 106.333 325.324 106.824C325.921 107.315 326.241 107.987 326.284 108.84H324.828C324.796 108.381 324.609 108.013 324.268 107.736C323.937 107.459 323.489 107.32 322.924 107.32C322.401 107.32 321.985 107.432 321.676 107.656C321.367 107.88 321.212 108.173 321.212 108.536C321.212 108.824 321.303 109.064 321.484 109.256C321.676 109.437 321.911 109.587 322.188 109.704C322.476 109.811 322.871 109.933 323.372 110.072C324.001 110.243 324.513 110.413 324.908 110.584C325.303 110.744 325.639 110.989 325.916 111.32C326.204 111.651 326.353 112.083 326.364 112.616C326.364 113.096 326.231 113.528 325.964 113.912C325.697 114.296 325.319 114.6 324.828 114.824C324.348 115.037 323.793 115.144 323.164 115.144ZM333.437 104.808C333.16 104.808 332.925 104.712 332.733 104.52C332.541 104.328 332.445 104.093 332.445 103.816C332.445 103.539 332.541 103.304 332.733 103.112C332.925 102.92 333.16 102.824 333.437 102.824C333.704 102.824 333.928 102.92 334.109 103.112C334.301 103.304 334.397 103.539 334.397 103.816C334.397 104.093 334.301 104.328 334.109 104.52C333.928 104.712 333.704 104.808 333.437 104.808ZM334.141 106.232V115H332.685V106.232H334.141ZM340.895 106.072C341.961 106.072 342.825 106.397 343.487 107.048C344.148 107.688 344.479 108.616 344.479 109.832V115H343.039V110.04C343.039 109.165 342.82 108.499 342.383 108.04C341.945 107.571 341.348 107.336 340.591 107.336C339.823 107.336 339.209 107.576 338.751 108.056C338.303 108.536 338.079 109.235 338.079 110.152V115H336.623V106.232H338.079V107.48C338.367 107.032 338.756 106.685 339.247 106.44C339.748 106.195 340.297 106.072 340.895 106.072ZM348.633 107.432V112.6C348.633 113.027 348.724 113.331 348.905 113.512C349.086 113.683 349.401 113.768 349.849 113.768H350.921V115H349.609C348.798 115 348.19 114.813 347.785 114.44C347.38 114.067 347.177 113.453 347.177 112.6V107.432H346.041V106.232H347.177V104.024H348.633V106.232H350.921V107.432H348.633ZM356.509 115.144C355.688 115.144 354.941 114.957 354.269 114.584C353.608 114.211 353.085 113.683 352.701 113C352.328 112.307 352.141 111.507 352.141 110.6C352.141 109.704 352.333 108.915 352.717 108.232C353.112 107.539 353.645 107.011 354.317 106.648C354.989 106.275 355.741 106.088 356.573 106.088C357.405 106.088 358.157 106.275 358.829 106.648C359.501 107.011 360.029 107.533 360.413 108.216C360.808 108.899 361.005 109.693 361.005 110.6C361.005 111.507 360.802 112.307 360.397 113C360.002 113.683 359.464 114.211 358.781 114.584C358.098 114.957 357.341 115.144 356.509 115.144ZM356.509 113.864C357.032 113.864 357.522 113.741 357.981 113.496C358.44 113.251 358.808 112.883 359.085 112.392C359.373 111.901 359.517 111.304 359.517 110.6C359.517 109.896 359.378 109.299 359.101 108.808C358.824 108.317 358.461 107.955 358.013 107.72C357.565 107.475 357.08 107.352 356.557 107.352C356.024 107.352 355.533 107.475 355.085 107.72C354.648 107.955 354.296 108.317 354.029 108.808C353.762 109.299 353.629 109.896 353.629 110.6C353.629 111.315 353.757 111.917 354.013 112.408C354.28 112.899 354.632 113.267 355.069 113.512C355.506 113.747 355.986 113.864 356.509 113.864ZM375.185 110.28C375.185 110.557 375.169 110.851 375.137 111.16H368.129C368.182 112.024 368.476 112.701 369.009 113.192C369.553 113.672 370.209 113.912 370.977 113.912C371.606 113.912 372.129 113.768 372.545 113.48C372.972 113.181 373.27 112.787 373.441 112.296H375.009C374.774 113.139 374.305 113.827 373.601 114.36C372.897 114.883 372.022 115.144 370.977 115.144C370.145 115.144 369.398 114.957 368.737 114.584C368.086 114.211 367.574 113.683 367.201 113C366.828 112.307 366.641 111.507 366.641 110.6C366.641 109.693 366.822 108.899 367.185 108.216C367.548 107.533 368.054 107.011 368.705 106.648C369.366 106.275 370.124 106.088 370.977 106.088C371.809 106.088 372.545 106.269 373.185 106.632C373.825 106.995 374.316 107.496 374.657 108.136C375.009 108.765 375.185 109.48 375.185 110.28ZM373.681 109.976C373.681 109.421 373.558 108.947 373.313 108.552C373.068 108.147 372.732 107.843 372.305 107.64C371.889 107.427 371.425 107.32 370.913 107.32C370.177 107.32 369.548 107.555 369.025 108.024C368.513 108.493 368.22 109.144 368.145 109.976H373.681ZM381.683 115L379.603 111.736L377.603 115H376.083L378.915 110.648L376.083 106.232H377.731L379.811 109.48L381.795 106.232H383.315L380.499 110.568L383.331 115H381.683ZM386.219 107.848C386.507 107.347 386.934 106.931 387.499 106.6C388.075 106.259 388.742 106.088 389.499 106.088C390.278 106.088 390.982 106.275 391.611 106.648C392.251 107.021 392.753 107.549 393.115 108.232C393.478 108.904 393.659 109.688 393.659 110.584C393.659 111.469 393.478 112.259 393.115 112.952C392.753 113.645 392.251 114.184 391.611 114.568C390.982 114.952 390.278 115.144 389.499 115.144C388.753 115.144 388.091 114.979 387.515 114.648C386.95 114.307 386.518 113.885 386.219 113.384V119.16H384.763V106.232H386.219V107.848ZM392.171 110.584C392.171 109.923 392.038 109.347 391.771 108.856C391.505 108.365 391.142 107.992 390.683 107.736C390.235 107.48 389.739 107.352 389.195 107.352C388.662 107.352 388.166 107.485 387.707 107.752C387.259 108.008 386.897 108.387 386.619 108.888C386.353 109.379 386.219 109.949 386.219 110.6C386.219 111.261 386.353 111.843 386.619 112.344C386.897 112.835 387.259 113.213 387.707 113.48C388.166 113.736 388.662 113.864 389.195 113.864C389.739 113.864 390.235 113.736 390.683 113.48C391.142 113.213 391.505 112.835 391.771 112.344C392.038 111.843 392.171 111.256 392.171 110.584ZM403.576 110.28C403.576 110.557 403.56 110.851 403.528 111.16H396.52C396.573 112.024 396.866 112.701 397.4 113.192C397.944 113.672 398.6 113.912 399.368 113.912C399.997 113.912 400.52 113.768 400.936 113.48C401.362 113.181 401.661 112.787 401.832 112.296H403.4C403.165 113.139 402.696 113.827 401.992 114.36C401.288 114.883 400.413 115.144 399.368 115.144C398.536 115.144 397.789 114.957 397.128 114.584C396.477 114.211 395.965 113.683 395.592 113C395.218 112.307 395.032 111.507 395.032 110.6C395.032 109.693 395.213 108.899 395.576 108.216C395.938 107.533 396.445 107.011 397.096 106.648C397.757 106.275 398.514 106.088 399.368 106.088C400.2 106.088 400.936 106.269 401.576 106.632C402.216 106.995 402.706 107.496 403.048 108.136C403.4 108.765 403.576 109.48 403.576 110.28ZM402.072 109.976C402.072 109.421 401.949 108.947 401.704 108.552C401.458 108.147 401.122 107.843 400.696 107.64C400.28 107.427 399.816 107.32 399.304 107.32C398.568 107.32 397.938 107.555 397.416 108.024C396.904 108.493 396.61 109.144 396.536 109.976H402.072ZM406.954 107.656C407.21 107.155 407.572 106.765 408.042 106.488C408.522 106.211 409.103 106.072 409.786 106.072V107.576H409.402C407.77 107.576 406.954 108.461 406.954 110.232V115H405.498V106.232H406.954V107.656ZM412.218 104.808C411.941 104.808 411.706 104.712 411.514 104.52C411.322 104.328 411.226 104.093 411.226 103.816C411.226 103.539 411.322 103.304 411.514 103.112C411.706 102.92 411.941 102.824 412.218 102.824C412.485 102.824 412.709 102.92 412.89 103.112C413.082 103.304 413.178 103.539 413.178 103.816C413.178 104.093 413.082 104.328 412.89 104.52C412.709 104.712 412.485 104.808 412.218 104.808ZM412.922 106.232V115H411.466V106.232H412.922ZM423.404 110.28C423.404 110.557 423.388 110.851 423.356 111.16H416.348C416.401 112.024 416.695 112.701 417.228 113.192C417.772 113.672 418.428 113.912 419.196 113.912C419.825 113.912 420.348 113.768 420.764 113.48C421.191 113.181 421.489 112.787 421.66 112.296H423.228C422.993 113.139 422.524 113.827 421.82 114.36C421.116 114.883 420.241 115.144 419.196 115.144C418.364 115.144 417.617 114.957 416.956 114.584C416.305 114.211 415.793 113.683 415.42 113C415.047 112.307 414.86 111.507 414.86 110.6C414.86 109.693 415.041 108.899 415.404 108.216C415.767 107.533 416.273 107.011 416.924 106.648C417.585 106.275 418.343 106.088 419.196 106.088C420.028 106.088 420.764 106.269 421.404 106.632C422.044 106.995 422.535 107.496 422.876 108.136C423.228 108.765 423.404 109.48 423.404 110.28ZM421.9 109.976C421.9 109.421 421.777 108.947 421.532 108.552C421.287 108.147 420.951 107.843 420.524 107.64C420.108 107.427 419.644 107.32 419.132 107.32C418.396 107.32 417.767 107.555 417.244 108.024C416.732 108.493 416.439 109.144 416.364 109.976H421.9ZM429.598 106.072C430.664 106.072 431.528 106.397 432.19 107.048C432.851 107.688 433.182 108.616 433.182 109.832V115H431.742V110.04C431.742 109.165 431.523 108.499 431.086 108.04C430.648 107.571 430.051 107.336 429.294 107.336C428.526 107.336 427.912 107.576 427.454 108.056C427.006 108.536 426.782 109.235 426.782 110.152V115H425.326V106.232H426.782V107.48C427.07 107.032 427.459 106.685 427.95 106.44C428.451 106.195 429 106.072 429.598 106.072ZM435.016 110.6C435.016 109.693 435.197 108.904 435.56 108.232C435.923 107.549 436.424 107.021 437.064 106.648C437.715 106.275 438.456 106.088 439.288 106.088C440.365 106.088 441.251 106.349 441.944 106.872C442.648 107.395 443.112 108.12 443.336 109.048H441.768C441.619 108.515 441.325 108.093 440.888 107.784C440.461 107.475 439.928 107.32 439.288 107.32C438.456 107.32 437.784 107.608 437.272 108.184C436.76 108.749 436.504 109.555 436.504 110.6C436.504 111.656 436.76 112.472 437.272 113.048C437.784 113.624 438.456 113.912 439.288 113.912C439.928 113.912 440.461 113.763 440.888 113.464C441.315 113.165 441.608 112.739 441.768 112.184H443.336C443.101 113.08 442.632 113.8 441.928 114.344C441.224 114.877 440.344 115.144 439.288 115.144C438.456 115.144 437.715 114.957 437.064 114.584C436.424 114.211 435.923 113.683 435.56 113C435.197 112.317 435.016 111.517 435.016 110.6ZM453.279 110.28C453.279 110.557 453.263 110.851 453.231 111.16H446.223C446.276 112.024 446.57 112.701 447.103 113.192C447.647 113.672 448.303 113.912 449.071 113.912C449.7 113.912 450.223 113.768 450.639 113.48C451.066 113.181 451.364 112.787 451.535 112.296H453.103C452.868 113.139 452.399 113.827 451.695 114.36C450.991 114.883 450.116 115.144 449.071 115.144C448.239 115.144 447.492 114.957 446.831 114.584C446.18 114.211 445.668 113.683 445.295 113C444.922 112.307 444.735 111.507 444.735 110.6C444.735 109.693 444.916 108.899 445.279 108.216C445.642 107.533 446.148 107.011 446.799 106.648C447.46 106.275 448.218 106.088 449.071 106.088C449.903 106.088 450.639 106.269 451.279 106.632C451.919 106.995 452.41 107.496 452.751 108.136C453.103 108.765 453.279 109.48 453.279 110.28ZM451.775 109.976C451.775 109.421 451.652 108.947 451.407 108.552C451.162 108.147 450.826 107.843 450.399 107.64C449.983 107.427 449.519 107.32 449.007 107.32C448.271 107.32 447.642 107.555 447.119 108.024C446.607 108.493 446.314 109.144 446.239 109.976H451.775ZM458.305 115.144C457.633 115.144 457.03 115.032 456.497 114.808C455.963 114.573 455.542 114.253 455.233 113.848C454.923 113.432 454.753 112.957 454.721 112.424H456.225C456.267 112.861 456.47 113.219 456.833 113.496C457.206 113.773 457.691 113.912 458.289 113.912C458.843 113.912 459.281 113.789 459.601 113.544C459.921 113.299 460.081 112.989 460.081 112.616C460.081 112.232 459.91 111.949 459.569 111.768C459.227 111.576 458.699 111.389 457.985 111.208C457.334 111.037 456.801 110.867 456.385 110.696C455.979 110.515 455.627 110.253 455.329 109.912C455.041 109.56 454.897 109.101 454.897 108.536C454.897 108.088 455.03 107.677 455.297 107.304C455.563 106.931 455.942 106.637 456.433 106.424C456.923 106.2 457.483 106.088 458.113 106.088C459.083 106.088 459.867 106.333 460.465 106.824C461.062 107.315 461.382 107.987 461.425 108.84H459.969C459.937 108.381 459.75 108.013 459.409 107.736C459.078 107.459 458.63 107.32 458.065 107.32C457.542 107.32 457.126 107.432 456.817 107.656C456.507 107.88 456.353 108.173 456.353 108.536C456.353 108.824 456.443 109.064 456.625 109.256C456.817 109.437 457.051 109.587 457.329 109.704C457.617 109.811 458.011 109.933 458.513 110.072C459.142 110.243 459.654 110.413 460.049 110.584C460.443 110.744 460.779 110.989 461.057 111.32C461.345 111.651 461.494 112.083 461.505 112.616C461.505 113.096 461.371 113.528 461.105 113.912C460.838 114.296 460.459 114.6 459.969 114.824C459.489 115.037 458.934 115.144 458.305 115.144ZM469.602 107.432V112.6C469.602 113.027 469.692 113.331 469.874 113.512C470.055 113.683 470.37 113.768 470.818 113.768H471.89V115H470.578C469.767 115 469.159 114.813 468.754 114.44C468.348 114.067 468.146 113.453 468.146 112.6V107.432H467.01V106.232H468.146V104.024H469.602V106.232H471.89V107.432H469.602ZM478.006 106.072C478.667 106.072 479.265 106.216 479.798 106.504C480.331 106.781 480.747 107.203 481.046 107.768C481.355 108.333 481.51 109.021 481.51 109.832V115H480.07V110.04C480.07 109.165 479.851 108.499 479.414 108.04C478.977 107.571 478.379 107.336 477.622 107.336C476.854 107.336 476.241 107.576 475.782 108.056C475.334 108.536 475.11 109.235 475.11 110.152V115H473.654V103.16H475.11V107.48C475.398 107.032 475.793 106.685 476.294 106.44C476.806 106.195 477.377 106.072 478.006 106.072ZM483.344 110.584C483.344 109.688 483.526 108.904 483.888 108.232C484.251 107.549 484.747 107.021 485.376 106.648C486.016 106.275 486.726 106.088 487.504 106.088C488.272 106.088 488.939 106.253 489.504 106.584C490.07 106.915 490.491 107.331 490.768 107.832V106.232H492.24V115H490.768V113.368C490.48 113.88 490.048 114.307 489.472 114.648C488.907 114.979 488.246 115.144 487.488 115.144C486.71 115.144 486.006 114.952 485.376 114.568C484.747 114.184 484.251 113.645 483.888 112.952C483.526 112.259 483.344 111.469 483.344 110.584ZM490.768 110.6C490.768 109.939 490.635 109.363 490.368 108.872C490.102 108.381 489.739 108.008 489.28 107.752C488.832 107.485 488.336 107.352 487.792 107.352C487.248 107.352 486.752 107.48 486.304 107.736C485.856 107.992 485.499 108.365 485.232 108.856C484.966 109.347 484.832 109.923 484.832 110.584C484.832 111.256 484.966 111.843 485.232 112.344C485.499 112.835 485.856 113.213 486.304 113.48C486.752 113.736 487.248 113.864 487.792 113.864C488.336 113.864 488.832 113.736 489.28 113.48C489.739 113.213 490.102 112.835 490.368 112.344C490.635 111.843 490.768 111.261 490.768 110.6ZM496.477 107.432V112.6C496.477 113.027 496.567 113.331 496.749 113.512C496.93 113.683 497.245 113.768 497.693 113.768H498.765V115H497.453C496.642 115 496.034 114.813 495.629 114.44C495.223 114.067 495.021 113.453 495.021 112.6V107.432H493.885V106.232H495.021V104.024H496.477V106.232H498.765V107.432H496.477ZM504.251 110.584C504.251 109.688 504.432 108.904 504.795 108.232C505.157 107.549 505.653 107.021 506.283 106.648C506.923 106.275 507.637 106.088 508.427 106.088C509.109 106.088 509.744 106.248 510.331 106.568C510.917 106.877 511.365 107.288 511.675 107.8V103.16H513.147V115H511.675V113.352C511.387 113.875 510.96 114.307 510.395 114.648C509.829 114.979 509.168 115.144 508.411 115.144C507.632 115.144 506.923 114.952 506.283 114.568C505.653 114.184 505.157 113.645 504.795 112.952C504.432 112.259 504.251 111.469 504.251 110.584ZM511.675 110.6C511.675 109.939 511.541 109.363 511.275 108.872C511.008 108.381 510.645 108.008 510.187 107.752C509.739 107.485 509.243 107.352 508.699 107.352C508.155 107.352 507.659 107.48 507.211 107.736C506.763 107.992 506.405 108.365 506.139 108.856C505.872 109.347 505.739 109.923 505.739 110.584C505.739 111.256 505.872 111.843 506.139 112.344C506.405 112.835 506.763 113.213 507.211 113.48C507.659 113.736 508.155 113.864 508.699 113.864C509.243 113.864 509.739 113.736 510.187 113.48C510.645 113.213 511.008 112.835 511.275 112.344C511.541 111.843 511.675 111.261 511.675 110.6ZM523.607 110.28C523.607 110.557 523.591 110.851 523.559 111.16H516.551C516.604 112.024 516.898 112.701 517.431 113.192C517.975 113.672 518.631 113.912 519.399 113.912C520.028 113.912 520.551 113.768 520.967 113.48C521.394 113.181 521.692 112.787 521.863 112.296H523.431C523.196 113.139 522.727 113.827 522.023 114.36C521.319 114.883 520.444 115.144 519.399 115.144C518.567 115.144 517.82 114.957 517.159 114.584C516.508 114.211 515.996 113.683 515.623 113C515.25 112.307 515.063 111.507 515.063 110.6C515.063 109.693 515.244 108.899 515.607 108.216C515.97 107.533 516.476 107.011 517.127 106.648C517.788 106.275 518.546 106.088 519.399 106.088C520.231 106.088 520.967 106.269 521.607 106.632C522.247 106.995 522.738 107.496 523.079 108.136C523.431 108.765 523.607 109.48 523.607 110.28ZM522.103 109.976C522.103 109.421 521.98 108.947 521.735 108.552C521.49 108.147 521.154 107.843 520.727 107.64C520.311 107.427 519.847 107.32 519.335 107.32C518.599 107.32 517.97 107.555 517.447 108.024C516.935 108.493 516.642 109.144 516.567 109.976H522.103ZM526.985 103.16V115H525.529V103.16H526.985ZM530.218 104.808C529.941 104.808 529.706 104.712 529.514 104.52C529.322 104.328 529.226 104.093 529.226 103.816C529.226 103.539 529.322 103.304 529.514 103.112C529.706 102.92 529.941 102.824 530.218 102.824C530.485 102.824 530.709 102.92 530.89 103.112C531.082 103.304 531.178 103.539 531.178 103.816C531.178 104.093 531.082 104.328 530.89 104.52C530.709 104.712 530.485 104.808 530.218 104.808ZM530.922 106.232V115H529.466V106.232H530.922ZM537.02 106.088C537.777 106.088 538.439 106.253 539.004 106.584C539.58 106.915 540.007 107.331 540.284 107.832V106.232H541.756V115.192C541.756 115.992 541.585 116.701 541.244 117.32C540.903 117.949 540.412 118.44 539.772 118.792C539.143 119.144 538.407 119.32 537.564 119.32C536.412 119.32 535.452 119.048 534.684 118.504C533.916 117.96 533.463 117.219 533.324 116.28H534.764C534.924 116.813 535.255 117.24 535.756 117.56C536.257 117.891 536.86 118.056 537.564 118.056C538.364 118.056 539.015 117.805 539.516 117.304C540.028 116.803 540.284 116.099 540.284 115.192V113.352C539.996 113.864 539.569 114.291 539.004 114.632C538.439 114.973 537.777 115.144 537.02 115.144C536.241 115.144 535.532 114.952 534.892 114.568C534.263 114.184 533.767 113.645 533.404 112.952C533.041 112.259 532.86 111.469 532.86 110.584C532.86 109.688 533.041 108.904 533.404 108.232C533.767 107.549 534.263 107.021 534.892 106.648C535.532 106.275 536.241 106.088 537.02 106.088ZM540.284 110.6C540.284 109.939 540.151 109.363 539.884 108.872C539.617 108.381 539.255 108.008 538.796 107.752C538.348 107.485 537.852 107.352 537.308 107.352C536.764 107.352 536.268 107.48 535.82 107.736C535.372 107.992 535.015 108.365 534.748 108.856C534.481 109.347 534.348 109.923 534.348 110.584C534.348 111.256 534.481 111.843 534.748 112.344C535.015 112.835 535.372 113.213 535.82 113.48C536.268 113.736 536.764 113.864 537.308 113.864C537.852 113.864 538.348 113.736 538.796 113.48C539.255 113.213 539.617 112.835 539.884 112.344C540.151 111.843 540.284 111.261 540.284 110.6ZM548.568 106.072C549.23 106.072 549.827 106.216 550.36 106.504C550.894 106.781 551.31 107.203 551.608 107.768C551.918 108.333 552.072 109.021 552.072 109.832V115H550.632V110.04C550.632 109.165 550.414 108.499 549.976 108.04C549.539 107.571 548.942 107.336 548.184 107.336C547.416 107.336 546.803 107.576 546.344 108.056C545.896 108.536 545.672 109.235 545.672 110.152V115H544.216V103.16H545.672V107.48C545.96 107.032 546.355 106.685 546.856 106.44C547.368 106.195 547.939 106.072 548.568 106.072ZM556.227 107.432V112.6C556.227 113.027 556.317 113.331 556.499 113.512C556.68 113.683 556.995 113.768 557.443 113.768H558.515V115H557.203C556.392 115 555.784 114.813 555.379 114.44C554.973 114.067 554.771 113.453 554.771 112.6V107.432H553.635V106.232H554.771V104.024H556.227V106.232H558.515V107.432H556.227ZM560.743 115.096C560.466 115.096 560.231 115 560.039 114.808C559.847 114.616 559.751 114.381 559.751 114.104C559.751 113.827 559.847 113.592 560.039 113.4C560.231 113.208 560.466 113.112 560.743 113.112C561.01 113.112 561.234 113.208 561.415 113.4C561.607 113.592 561.703 113.827 561.703 114.104C561.703 114.381 561.607 114.616 561.415 114.808C561.234 115 561.01 115.096 560.743 115.096Z" fill="white"/>
<defs>
<linearGradient id="paint0_linear_25_1081" x1="0" y1="0" x2="785.236" y2="135.207" gradientUnits="userSpaceOnUse">
<stop offset="0.5" stop-color="#1A237E"/>
<stop offset="1" stop-color="#303F9F"/>
</linearGradient>
</defs>
</svg>
