<svg width="28" height="28" viewBox="0 0 28 28" fill="none" xmlns="http://www.w3.org/2000/svg">
<path d="M23.333 9.33334L13.9997 15.1667L4.66634 9.33334V7.00001L13.9997 12.8333L23.333 7.00001M23.333 4.66667H4.66634C3.37134 4.66667 2.33301 5.70501 2.33301 7.00001V21C2.33301 21.6188 2.57884 22.2123 3.01643 22.6499C3.45401 23.0875 4.0475 23.3333 4.66634 23.3333H23.333C23.9518 23.3333 24.5453 23.0875 24.9829 22.6499C25.4205 22.2123 25.6663 21.6188 25.6663 21V7.00001C25.6663 6.38117 25.4205 5.78767 24.9829 5.35009C24.5453 4.9125 23.9518 4.66667 23.333 4.66667Z" fill="white"/>
</svg>
